<?xml version="1.0" encoding="UTF-8" standalone="no"?>
<svg
   xmlns:dc="http://purl.org/dc/elements/1.1/"
   xmlns:cc="http://creativecommons.org/ns#"
   xmlns:rdf="http://www.w3.org/1999/02/22-rdf-syntax-ns#"
   xmlns:svg="http://www.w3.org/2000/svg"
   xmlns="http://www.w3.org/2000/svg"
   xmlns:sodipodi="http://sodipodi.sourceforge.net/DTD/sodipodi-0.dtd"
   xmlns:inkscape="http://www.inkscape.org/namespaces/inkscape"
   width="271.70874mm"
   height="107.06042mm"
   viewBox="0 0 271.70874 107.06042"
   version="1.1"
   id="svg4151"
   inkscape:version="1.0.1 (3bc2e813f5, 2020-09-07)"
   sodipodi:docname="logo-text-only.svg">
  <defs
     id="defs4145">
    <clipPath
       clipPathUnits="userSpaceOnUse"
       id="clipPath20">
      <path
         d="M 0,700 H 1100 V 0 H 0 Z"
         id="path18" />
    </clipPath>
  </defs>
  <sodipodi:namedview
     id="base"
     pagecolor="#ffffff"
     bordercolor="#666666"
     borderopacity="1.0"
     inkscape:pageopacity="0.0"
     inkscape:pageshadow="2"
     inkscape:zoom="0.35"
     inkscape:cx="367.75106"
     inkscape:cy="930.89032"
     inkscape:document-units="mm"
     inkscape:current-layer="layer1"
     inkscape:document-rotation="0"
     showgrid="false"
     inkscape:window-width="1346"
     inkscape:window-height="1198"
     inkscape:window-x="99"
     inkscape:window-y="63"
     inkscape:window-maximized="0" />
  <metadata
     id="metadata4148">
    <rdf:RDF>
      <cc:Work
         rdf:about="">
        <dc:format>image/svg+xml</dc:format>
        <dc:type
           rdf:resource="http://purl.org/dc/dcmitype/StillImage" />
        <dc:title></dc:title>
      </cc:Work>
    </rdf:RDF>
  </metadata>
  <g
     inkscape:label="Layer 1"
     inkscape:groupmode="layer"
     id="layer1"
     transform="translate(-8.5325331,98.131398)">
    <g
       id="g14"
       transform="matrix(0.35277777,0,0,-0.35277777,-65.229351,79.309389)">
      <g
         id="g16"
         clip-path="url(#clipPath20)">
        <g
           id="g22"
           transform="translate(600.9092,345.958)" />
        <g
           id="g26"
           transform="translate(706.707,299.5566)" />
        <g
           id="g30"
           transform="translate(810.2764,345.958)" />
        <g
           id="g34"
           transform="translate(930.5527,345.958)" />
        <g
           id="g40"
           transform="translate(503.8398,367.5195)">
          <path
             d="m 8.7266003,-16.286056 c 0,-3.170064 -0.10674,-6.340128 -0.32021,-9.492657 -0.85541,-13.857403 -3.56194,-27.197135 -7.89009005,-39.789715 C -18.95161,-122.31318 -71.13644,-163.86557 -133.5283,-167.69511 c -3.13424,-0.23101 -6.30506,-0.32097 -9.49342,-0.32097 -3.1876,0 -6.33937,0.09 -9.4919,0.32097 -76.24773,4.68419 -137.23296,65.6679 -141.91639,141.916397 -0.23101,3.152529 -0.32098,6.322593 -0.32098,9.492657 0,3.188361 0.09,6.358425 0.32098,9.493419 4.68343,76.22944 65.66866,137.249737 141.91639,141.933927 3.15253,0.21348 6.3043,0.32098 9.4919,0.32098 3.18836,0 6.35918,-0.1075 9.49342,-0.32098 V 94.354359 h -18.98532 V 110.75818 C -215.22645,106.14489 -265.43361,55.901133 -270.06444,-6.792637 h 14.65793 v -18.986076 h -14.65793 c 4.63083,-62.712067 54.83799,-112.920757 117.55082,-117.551577 v 16.72479 h 18.98532 v -16.72479 c 46.32654,3.42013 85.86619,31.73876 105.20907,71.59937 6.83873,14.070117 11.14859,29.584217 12.34251,45.952207 h -0.0358 l 8.8697703,18.986076 h 15.54917 c 0.21347,-3.134994 0.32021,-6.305058 0.32021,-9.493419"
             style="fill:#2f855a;fill-opacity:1;fill-rule:nonzero;stroke:none;stroke-width:0.762401"
             id="path42" />
        </g>
        <g
           id="g44"
           transform="translate(504.2754,431.2373)">
          <path
             d="m 11.6231,-31.425333 -17.1029497,8.252992 -4.6666503,-9.703842 -9.61922,-20.006168 -37.98968,-78.855149 -0.0572,-0.0854 h -37.47886 l -0.0282,0.0572 0.0282,0.0854 14.77,30.64853 3.78456,7.85425 0.19898,0.42618 19.2087,39.869009 7.37013,15.25336 2.27653,4.752808 11.72497,24.386926 -5.77672,2.761416 -9.59024,4.638449 49.9708203,23.249422 z"
             style="fill:#2f855a;fill-opacity:1;fill-rule:nonzero;stroke:none;stroke-width:0.762401"
             id="path46" />
        </g>
        <g
           id="g48"
           transform="translate(258.5654,361.2139)">
          <path
             d="m 65.50352,-19.287853 v -0.0183 L 46.73396,-58.308305 12.56848,12.654468 2.9523203,32.646912 H 40.49066 l 9.63446,-19.992444 z"
             style="fill:#2f855a;fill-opacity:1;fill-rule:nonzero;stroke:none;stroke-width:0.762401"
             id="path50" />
        </g>
        <g
           id="g52"
           transform="translate(320.9248,367.3867)">
          <path
             d="M 52.18699,-16.254503 27.28545,-67.966647 v -0.01906 h -37.57494 v 0.01906 l 18.7870903,39.002155 19.2506297,39.94677 5.65168,11.764611 5.66921,-11.764611 9.2647,-19.232331 z"
             style="fill:#2f855a;fill-opacity:1;fill-rule:nonzero;stroke:none;stroke-width:0.762401"
             id="path54" />
        </g>
        <g
           id="g56"
           transform="translate(383.7656,359.833)">
          <path
             d="m 38.75609,-18.959752 -3.78456,-7.854257 -14.7982,-30.591345 -0.0282,-0.08539 -25.2979997,52.560696 -9.1358503,18.95253 -9.61769,20.005406 h 37.10759 z"
             style="fill:#2f855a;fill-opacity:1;fill-rule:nonzero;stroke:none;stroke-width:0.762401"
             id="path58" />
        </g>
      </g>
    </g>
    <text
       xml:space="preserve"
       style="font-style:normal;font-variant:normal;font-weight:500;font-stretch:normal;font-size:62.089px;line-height:1.25;font-family:Roboto;-inkscape-font-specification:'Roboto, Medium';font-variant-ligatures:normal;font-variant-caps:normal;font-variant-numeric:normal;font-variant-east-asian:normal;letter-spacing:1.5875px;fill:#2f855a;fill-opacity:1;stroke:none;stroke-width:0.264583"
       x="127.21814"
       y="-26.413651"
       id="text856"><tspan
         sodipodi:role="line"
         id="tspan854"
         x="127.21814"
         y="-26.413651"
         style="font-style:normal;font-variant:normal;font-weight:500;font-stretch:normal;font-size:62.089px;font-family:Roboto;-inkscape-font-specification:'Roboto, Medium';font-variant-ligatures:normal;font-variant-caps:normal;font-variant-numeric:normal;font-variant-east-asian:normal;fill:#2f855a;fill-opacity:1;stroke-width:0.264583"
         dx="0"
         rotate="0 0 0 0 0 0">akapi</tspan></text>
  </g>
</svg>
