<svg width="892" height="316" viewBox="0 0 892 316" fill="none" xmlns="http://www.w3.org/2000/svg">
<path d="M761.169 183.664C761.169 155.945 782.541 122.871 818.904 122.871H845.698L836.129 153.11C824.965 189.334 807.102 211.698 785.411 211.698C769.781 211.698 761.169 200.989 761.169 183.664ZM624.965 168.545C611.568 211.068 631.982 240.363 678.234 240.363C684.933 240.363 693.864 239.733 696.416 239.103C697.692 238.788 698.33 238.158 698.968 236.583L706.942 210.123C707.261 208.549 706.942 207.289 704.71 207.604C697.692 208.234 691.312 208.864 685.571 208.864C662.285 208.864 652.716 196.579 659.734 174.529L676.001 122.871H723.21C724.486 122.871 725.443 122.241 726.081 120.666L734.375 93.8915C734.694 92.3165 734.056 91.3715 732.142 91.3715H685.89L691.95 71.8421C692.269 70.5821 691.95 69.6371 690.994 68.6921L666.432 46.6427C665.156 45.3827 663.561 45.6977 662.923 47.5877L624.965 168.545ZM462.286 169.49C448.569 212.643 470.579 240.993 505.029 240.993C524.805 240.993 540.435 231.543 551.6 216.108L551.281 235.953C551.281 237.843 552.238 238.473 553.833 238.473H575.842C577.437 238.473 578.075 237.843 578.713 236.268L623.051 94.2065C623.689 92.3165 622.732 91.3715 621.137 91.3715H589.558C587.963 91.3715 587.006 92.0015 586.687 93.5765L567.868 153.425C556.065 190.594 537.565 211.698 518.107 211.698C498.649 211.698 490.356 196.579 497.692 173.269L522.573 94.2065C523.211 92.3165 522.254 91.3715 520.659 91.3715H489.08C487.485 91.3715 486.847 92.0015 486.209 93.5765L462.286 169.49ZM354.79 168.545C341.393 211.068 361.807 240.363 408.059 240.363C414.758 240.363 423.689 239.733 426.241 239.103C427.517 238.788 428.155 238.158 428.793 236.583L436.767 210.123C437.086 208.549 436.767 207.289 434.534 207.604C427.517 208.234 421.137 208.864 415.396 208.864C392.11 208.864 382.541 196.579 389.558 174.529L405.826 122.871H453.035C454.311 122.871 455.587 122.241 455.906 120.666L464.199 93.8915C464.518 92.3165 463.88 91.3715 461.967 91.3715H415.396L421.456 71.8421C421.775 70.5821 421.456 69.6371 420.499 68.6921L395.938 46.6427C394.662 45.3827 393.067 45.6977 392.429 47.5877L354.79 168.545ZM773.928 240.993C792.429 240.993 807.74 232.803 819.223 216.108V235.953C819.223 237.528 820.18 238.473 821.775 238.473H843.784C845.379 238.473 846.017 237.843 846.655 236.268L891.312 93.8915C891.631 92.3165 890.993 91.0566 889.398 91.0566H819.861C751.919 91.0566 725.443 149.33 725.443 187.129C725.443 220.203 746.177 240.993 773.928 240.993Z" fill="#410002"/>
<path d="M25.284 3.80373L79.8294 58.2973C81.1053 59.5573 82.3812 59.8723 84.2951 59.8723H314.279C315.874 59.8723 316.831 57.9823 315.236 56.4074L261.329 2.54376C260.053 1.28379 258.777 0.653809 256.225 0.653809H26.5599C24.3271 0.653809 24.0081 2.54376 25.284 3.80373Z" fill="#850122"/>
<path d="M17.3097 313.125C16.9907 314.385 17.6287 315.645 19.2236 315.645H246.018C248.251 315.645 249.208 314.7 249.846 312.81L318.426 94.206C319.064 92.0011 318.107 91.3711 316.193 91.3711H88.761C86.8472 91.3711 86.2092 92.0011 85.5713 93.576L17.3097 313.125Z" fill="#850122"/>
<path d="M0.0848389 250.126C0.0848389 252.646 3.27463 252.646 3.91259 250.126L55.9062 82.8657C56.5441 80.9757 56.5441 79.7158 54.9492 78.1408L3.27463 27.4271C1.99871 26.1671 0.0848389 26.7971 0.0848389 28.3721V250.126Z" fill="#850122"/>
</svg>
