<svg width="1440" height="549" viewBox="0 0 1440 549" fill="none" xmlns="http://www.w3.org/2000/svg">
  <g transform="translate(0,260)">
    <g class="layer" id="0" style="fill: #121212">
      <rect
        x="0.4967297762478666"
        y="94"
        width="22.352839931153184"
        height="195"
      />
      <rect
        x="25.333218588640293"
        y="115"
        width="22.352839931153184"
        height="174"
      />
      <rect
        x="50.16970740103272"
        y="173"
        width="22.352839931153184"
        height="116"
      />
      <rect
        x="75.00619621342514"
        y="227"
        width="22.352839931153184"
        height="62"
      />
      <rect
        x="99.84268502581756"
        y="262"
        width="22.352839931153184"
        height="27"
      />
      <rect
        x="124.67917383820998"
        y="279"
        width="22.352839931153184"
        height="10"
      />
      <rect
        x="149.51566265060242"
        y="281"
        width="22.352839931153184"
        height="8"
      />
      <rect
        x="174.35215146299484"
        y="283"
        width="22.352839931153184"
        height="6"
      />
      <rect
        x="199.18864027538726"
        y="282"
        width="22.352839931153184"
        height="7"
      />
      <rect
        x="224.02512908777967"
        y="282"
        width="22.352839931153184"
        height="7"
      />
      <rect
        x="248.8616179001721"
        y="282"
        width="22.352839931153184"
        height="7"
      />
      <rect
        x="273.69810671256454"
        y="283"
        width="22.352839931153184"
        height="6"
      />
      <rect
        x="298.534595524957"
        y="282"
        width="22.352839931153184"
        height="7"
      />
      <rect
        x="323.37108433734943"
        y="284"
        width="22.352839931153184"
        height="5"
      />
      <rect
        x="348.20757314974185"
        y="282"
        width="22.352839931153184"
        height="7"
      />
      <rect
        x="373.04406196213426"
        y="284"
        width="22.352839931153184"
        height="5"
      />
      <rect
        x="397.8805507745267"
        y="283"
        width="22.352839931153184"
        height="6"
      />
      <rect
        x="422.7170395869191"
        y="285"
        width="22.352839931153184"
        height="4"
      />
      <rect
        x="447.5535283993115"
        y="284"
        width="22.352839931153184"
        height="5"
      />
      <rect
        x="472.39001721170393"
        y="284"
        width="22.352839931153184"
        height="5"
      />
      <rect
        x="497.22650602409635"
        y="284"
        width="22.352839931153184"
        height="5"
      />
      <rect
        x="522.0629948364888"
        y="285"
        width="22.352839931153184"
        height="4"
      />
      <rect
        x="546.8994836488812"
        y="283"
        width="22.352839931153184"
        height="6"
      />
      <rect
        x="571.7359724612736"
        y="284"
        width="22.352839931153184"
        height="5"
      />
      <rect
        x="596.5724612736661"
        y="285"
        width="22.352839931153184"
        height="4"
      />
      <rect
        x="621.4089500860586"
        y="285"
        width="22.352839931153184"
        height="4"
      />
      <rect
        x="646.245438898451"
        y="284"
        width="22.352839931153184"
        height="5"
      />
      <rect
        x="671.0819277108434"
        y="282"
        width="22.352839931153184"
        height="7"
      />
      <rect
        x="695.9184165232358"
        y="285"
        width="22.352839931153184"
        height="4"
      />
      <rect
        x="720.7549053356282"
        y="285"
        width="22.352839931153184"
        height="4"
      />
      <rect
        x="745.5913941480206"
        y="284"
        width="22.352839931153184"
        height="5"
      />
      <rect
        x="770.4278829604131"
        y="282"
        width="22.352839931153184"
        height="7"
      />
      <rect
        x="795.2643717728055"
        y="282"
        width="22.352839931153184"
        height="7"
      />
      <rect
        x="820.1008605851979"
        y="282"
        width="22.352839931153184"
        height="7"
      />
      <rect
        x="844.9373493975903"
        y="284"
        width="22.352839931153184"
        height="5"
      />
      <rect
        x="869.7738382099827"
        y="283"
        width="22.352839931153184"
        height="6"
      />
      <rect
        x="894.6103270223751"
        y="281"
        width="22.352839931153184"
        height="8"
      />
      <rect
        x="919.4468158347676"
        y="282"
        width="22.352839931153184"
        height="7"
      />
      <rect x="944.28330464716" y="285" width="22.352839931153184" height="4" />
      <rect
        x="969.1197934595524"
        y="283"
        width="22.352839931153184"
        height="6"
      />
      <rect
        x="993.9562822719448"
        y="283"
        width="22.352839931153184"
        height="6"
      />
      <rect
        x="1018.7927710843373"
        y="282"
        width="22.352839931153184"
        height="7"
      />
      <rect
        x="1043.6292598967295"
        y="284"
        width="22.352839931153184"
        height="5"
      />
      <rect
        x="1068.465748709122"
        y="283"
        width="22.352839931153184"
        height="6"
      />
      <rect
        x="1093.3022375215144"
        y="284"
        width="22.352839931153184"
        height="5"
      />
      <rect
        x="1118.1387263339068"
        y="282"
        width="22.352839931153184"
        height="7"
      />
      <rect
        x="1142.9752151462992"
        y="284"
        width="22.352839931153184"
        height="5"
      />
      <rect
        x="1167.8117039586916"
        y="283"
        width="22.352839931153184"
        height="6"
      />
      <rect
        x="1192.6481927710843"
        y="284"
        width="22.352839931153184"
        height="5"
      />
      <rect
        x="1217.4846815834767"
        y="282"
        width="22.352839931153184"
        height="7"
      />
      <rect
        x="1242.321170395869"
        y="285"
        width="22.352839931153184"
        height="4"
      />
      <rect
        x="1267.1576592082615"
        y="282"
        width="22.352839931153184"
        height="7"
      />
      <rect
        x="1291.994148020654"
        y="283"
        width="22.352839931153184"
        height="6"
      />
      <rect
        x="1316.8306368330464"
        y="285"
        width="22.352839931153184"
        height="4"
      />
      <rect
        x="1341.6671256454388"
        y="281"
        width="22.352839931153184"
        height="8"
      />
      <rect
        x="1366.5036144578312"
        y="283"
        width="22.352839931153184"
        height="6"
      />
      <rect
        x="1391.3401032702236"
        y="283"
        width="22.352839931153184"
        height="6"
      />
      <rect
        x="1416.176592082616"
        y="284"
        width="22.352839931153184"
        height="5"
      />
    </g>
    <g class="layer" id="1" style="fill: #141618">
      <rect
        x="0.4967297762478666"
        y="86"
        width="22.352839931153184"
        height="8"
      />
      <rect
        x="25.333218588640293"
        y="109"
        width="22.352839931153184"
        height="6"
      />
      <rect
        x="50.16970740103272"
        y="167"
        width="22.352839931153184"
        height="6"
      />
      <rect
        x="75.00619621342514"
        y="222"
        width="22.352839931153184"
        height="5"
      />
      <rect
        x="99.84268502581756"
        y="255"
        width="22.352839931153184"
        height="7"
      />
      <rect
        x="124.67917383820998"
        y="271"
        width="22.352839931153184"
        height="8"
      />
      <rect
        x="149.51566265060242"
        y="269"
        width="22.352839931153184"
        height="12"
      />
      <rect
        x="174.35215146299484"
        y="246"
        width="22.352839931153184"
        height="37"
      />
      <rect
        x="199.18864027538726"
        y="175"
        width="22.352839931153184"
        height="107"
      />
      <rect
        x="224.02512908777967"
        y="86"
        width="22.352839931153184"
        height="196"
      />
      <rect
        x="248.8616179001721"
        y="49"
        width="22.352839931153184"
        height="233"
      />
      <rect
        x="273.69810671256454"
        y="116"
        width="22.352839931153184"
        height="167"
      />
      <rect
        x="298.534595524957"
        y="210"
        width="22.352839931153184"
        height="72"
      />
      <rect
        x="323.37108433734943"
        y="262"
        width="22.352839931153184"
        height="22"
      />
      <rect
        x="348.20757314974185"
        y="273"
        width="22.352839931153184"
        height="9"
      />
      <rect
        x="373.04406196213426"
        y="277"
        width="22.352839931153184"
        height="7"
      />
      <rect
        x="397.8805507745267"
        y="275"
        width="22.352839931153184"
        height="8"
      />
      <rect
        x="422.7170395869191"
        y="279"
        width="22.352839931153184"
        height="6"
      />
      <rect
        x="447.5535283993115"
        y="276"
        width="22.352839931153184"
        height="8"
      />
      <rect
        x="472.39001721170393"
        y="278"
        width="22.352839931153184"
        height="6"
      />
      <rect
        x="497.22650602409635"
        y="278"
        width="22.352839931153184"
        height="6"
      />
      <rect
        x="522.0629948364888"
        y="279"
        width="22.352839931153184"
        height="6"
      />
      <rect
        x="546.8994836488812"
        y="276"
        width="22.352839931153184"
        height="7"
      />
      <rect
        x="571.7359724612736"
        y="277"
        width="22.352839931153184"
        height="7"
      />
      <rect
        x="596.5724612736661"
        y="279"
        width="22.352839931153184"
        height="6"
      />
      <rect
        x="621.4089500860586"
        y="280"
        width="22.352839931153184"
        height="5"
      />
      <rect
        x="646.245438898451"
        y="279"
        width="22.352839931153184"
        height="5"
      />
      <rect
        x="671.0819277108434"
        y="274"
        width="22.352839931153184"
        height="8"
      />
      <rect
        x="695.9184165232358"
        y="278"
        width="22.352839931153184"
        height="7"
      />
      <rect
        x="720.7549053356282"
        y="280"
        width="22.352839931153184"
        height="5"
      />
      <rect
        x="745.5913941480206"
        y="278"
        width="22.352839931153184"
        height="6"
      />
      <rect
        x="770.4278829604131"
        y="275"
        width="22.352839931153184"
        height="7"
      />
      <rect
        x="795.2643717728055"
        y="277"
        width="22.352839931153184"
        height="5"
      />
      <rect
        x="820.1008605851979"
        y="275"
        width="22.352839931153184"
        height="7"
      />
      <rect
        x="844.9373493975903"
        y="277"
        width="22.352839931153184"
        height="7"
      />
      <rect
        x="869.7738382099827"
        y="276"
        width="22.352839931153184"
        height="7"
      />
      <rect
        x="894.6103270223751"
        y="272"
        width="22.352839931153184"
        height="9"
      />
      <rect
        x="919.4468158347676"
        y="272"
        width="22.352839931153184"
        height="10"
      />
      <rect
        x="944.28330464716"
        y="273"
        width="22.352839931153184"
        height="12"
      />
      <rect
        x="969.1197934595524"
        y="267"
        width="22.352839931153184"
        height="16"
      />
      <rect
        x="993.9562822719448"
        y="264"
        width="22.352839931153184"
        height="19"
      />
      <rect
        x="1018.7927710843373"
        y="257"
        width="22.352839931153184"
        height="25"
      />
      <rect
        x="1043.6292598967295"
        y="254"
        width="22.352839931153184"
        height="30"
      />
      <rect
        x="1068.465748709122"
        y="246"
        width="22.352839931153184"
        height="37"
      />
      <rect
        x="1093.3022375215144"
        y="242"
        width="22.352839931153184"
        height="42"
      />
      <rect
        x="1118.1387263339068"
        y="235"
        width="22.352839931153184"
        height="47"
      />
      <rect
        x="1142.9752151462992"
        y="233"
        width="22.352839931153184"
        height="51"
      />
      <rect
        x="1167.8117039586916"
        y="232"
        width="22.352839931153184"
        height="51"
      />
      <rect
        x="1192.6481927710843"
        y="234"
        width="22.352839931153184"
        height="50"
      />
      <rect
        x="1217.4846815834767"
        y="238"
        width="22.352839931153184"
        height="44"
      />
      <rect
        x="1242.321170395869"
        y="243"
        width="22.352839931153184"
        height="42"
      />
      <rect
        x="1267.1576592082615"
        y="249"
        width="22.352839931153184"
        height="33"
      />
      <rect
        x="1291.994148020654"
        y="254"
        width="22.352839931153184"
        height="29"
      />
      <rect
        x="1316.8306368330464"
        y="263"
        width="22.352839931153184"
        height="22"
      />
      <rect
        x="1341.6671256454388"
        y="264"
        width="22.352839931153184"
        height="17"
      />
      <rect
        x="1366.5036144578312"
        y="268"
        width="22.352839931153184"
        height="15"
      />
      <rect
        x="1391.3401032702236"
        y="272"
        width="22.352839931153184"
        height="11"
      />
      <rect
        x="1416.176592082616"
        y="275"
        width="22.352839931153184"
        height="9"
      />
    </g>
    <g class="layer" id="2" style="fill: #161a1e">
      <rect
        x="0.4967297762478666"
        y="40"
        width="22.352839931153184"
        height="46"
      />
      <rect
        x="25.333218588640293"
        y="64"
        width="22.352839931153184"
        height="45"
      />
      <rect
        x="50.16970740103272"
        y="132"
        width="22.352839931153184"
        height="35"
      />
      <rect
        x="75.00619621342514"
        y="198"
        width="22.352839931153184"
        height="24"
      />
      <rect
        x="99.84268502581756"
        y="230"
        width="22.352839931153184"
        height="25"
      />
      <rect
        x="124.67917383820998"
        y="201"
        width="22.352839931153184"
        height="70"
      />
      <rect
        x="149.51566265060242"
        y="189"
        width="22.352839931153184"
        height="80"
      />
      <rect
        x="174.35215146299484"
        y="217"
        width="22.352839931153184"
        height="29"
      />
      <rect
        x="199.18864027538726"
        y="165"
        width="22.352839931153184"
        height="10"
      />
      <rect
        x="224.02512908777967"
        y="81"
        width="22.352839931153184"
        height="5"
      />
      <rect
        x="248.8616179001721"
        y="43"
        width="22.352839931153184"
        height="6"
      />
      <rect
        x="273.69810671256454"
        y="110"
        width="22.352839931153184"
        height="6"
      />
      <rect
        x="298.534595524957"
        y="203"
        width="22.352839931153184"
        height="7"
      />
      <rect
        x="323.37108433734943"
        y="258"
        width="22.352839931153184"
        height="4"
      />
      <rect
        x="348.20757314974185"
        y="269"
        width="22.352839931153184"
        height="4"
      />
      <rect
        x="373.04406196213426"
        y="273"
        width="22.352839931153184"
        height="4"
      />
      <rect
        x="397.8805507745267"
        y="268"
        width="22.352839931153184"
        height="7"
      />
      <rect
        x="422.7170395869191"
        y="272"
        width="22.352839931153184"
        height="7"
      />
      <rect
        x="447.5535283993115"
        y="271"
        width="22.352839931153184"
        height="5"
      />
      <rect
        x="472.39001721170393"
        y="273"
        width="22.352839931153184"
        height="5"
      />
      <rect
        x="497.22650602409635"
        y="274"
        width="22.352839931153184"
        height="4"
      />
      <rect
        x="522.0629948364888"
        y="273"
        width="22.352839931153184"
        height="6"
      />
      <rect
        x="546.8994836488812"
        y="268"
        width="22.352839931153184"
        height="8"
      />
      <rect
        x="571.7359724612736"
        y="266"
        width="22.352839931153184"
        height="11"
      />
      <rect
        x="596.5724612736661"
        y="257"
        width="22.352839931153184"
        height="22"
      />
      <rect
        x="621.4089500860586"
        y="240"
        width="22.352839931153184"
        height="40"
      />
      <rect
        x="646.245438898451"
        y="223"
        width="22.352839931153184"
        height="56"
      />
      <rect
        x="671.0819277108434"
        y="211"
        width="22.352839931153184"
        height="63"
      />
      <rect
        x="695.9184165232358"
        y="228"
        width="22.352839931153184"
        height="50"
      />
      <rect
        x="720.7549053356282"
        y="251"
        width="22.352839931153184"
        height="29"
      />
      <rect
        x="745.5913941480206"
        y="262"
        width="22.352839931153184"
        height="16"
      />
      <rect
        x="770.4278829604131"
        y="264"
        width="22.352839931153184"
        height="11"
      />
      <rect
        x="795.2643717728055"
        y="272"
        width="22.352839931153184"
        height="5"
      />
      <rect
        x="820.1008605851979"
        y="270"
        width="22.352839931153184"
        height="5"
      />
      <rect
        x="844.9373493975903"
        y="271"
        width="22.352839931153184"
        height="6"
      />
      <rect
        x="869.7738382099827"
        y="270"
        width="22.352839931153184"
        height="6"
      />
      <rect
        x="894.6103270223751"
        y="267"
        width="22.352839931153184"
        height="5"
      />
      <rect
        x="919.4468158347676"
        y="268"
        width="22.352839931153184"
        height="4"
      />
      <rect x="944.28330464716" y="268" width="22.352839931153184" height="5" />
      <rect
        x="969.1197934595524"
        y="261"
        width="22.352839931153184"
        height="6"
      />
      <rect
        x="993.9562822719448"
        y="257"
        width="22.352839931153184"
        height="7"
      />
      <rect
        x="1018.7927710843373"
        y="252"
        width="22.352839931153184"
        height="5"
      />
      <rect
        x="1043.6292598967295"
        y="248"
        width="22.352839931153184"
        height="6"
      />
      <rect
        x="1068.465748709122"
        y="241"
        width="22.352839931153184"
        height="5"
      />
      <rect
        x="1093.3022375215144"
        y="238"
        width="22.352839931153184"
        height="4"
      />
      <rect
        x="1118.1387263339068"
        y="229"
        width="22.352839931153184"
        height="6"
      />
      <rect
        x="1142.9752151462992"
        y="228"
        width="22.352839931153184"
        height="5"
      />
      <rect
        x="1167.8117039586916"
        y="226"
        width="22.352839931153184"
        height="6"
      />
      <rect
        x="1192.6481927710843"
        y="228"
        width="22.352839931153184"
        height="6"
      />
      <rect
        x="1217.4846815834767"
        y="231"
        width="22.352839931153184"
        height="7"
      />
      <rect
        x="1242.321170395869"
        y="239"
        width="22.352839931153184"
        height="4"
      />
      <rect
        x="1267.1576592082615"
        y="242"
        width="22.352839931153184"
        height="7"
      />
      <rect
        x="1291.994148020654"
        y="248"
        width="22.352839931153184"
        height="6"
      />
      <rect
        x="1316.8306368330464"
        y="256"
        width="22.352839931153184"
        height="7"
      />
      <rect
        x="1341.6671256454388"
        y="259"
        width="22.352839931153184"
        height="5"
      />
      <rect
        x="1366.5036144578312"
        y="263"
        width="22.352839931153184"
        height="5"
      />
      <rect
        x="1391.3401032702236"
        y="266"
        width="22.352839931153184"
        height="6"
      />
      <rect
        x="1416.176592082616"
        y="268"
        width="22.352839931153184"
        height="7"
      />
    </g>
    <g class="layer" id="3" style="fill: #181e20">
      <rect
        x="0.4967297762478666"
        y="35"
        width="22.352839931153184"
        height="5"
      />
      <rect
        x="25.333218588640293"
        y="58"
        width="22.352839931153184"
        height="6"
      />
      <rect
        x="50.16970740103272"
        y="124"
        width="22.352839931153184"
        height="8"
      />
      <rect
        x="75.00619621342514"
        y="192"
        width="22.352839931153184"
        height="6"
      />
      <rect
        x="99.84268502581756"
        y="223"
        width="22.352839931153184"
        height="7"
      />
      <rect
        x="124.67917383820998"
        y="196"
        width="22.352839931153184"
        height="5"
      />
      <rect
        x="149.51566265060242"
        y="182"
        width="22.352839931153184"
        height="7"
      />
      <rect
        x="174.35215146299484"
        y="205"
        width="22.352839931153184"
        height="12"
      />
      <rect
        x="199.18864027538726"
        y="123"
        width="22.352839931153184"
        height="42"
      />
      <rect
        x="224.02512908777967"
        y="74"
        width="22.352839931153184"
        height="7"
      />
      <rect
        x="248.8616179001721"
        y="37"
        width="22.352839931153184"
        height="6"
      />
      <rect
        x="273.69810671256454"
        y="105"
        width="22.352839931153184"
        height="5"
      />
      <rect
        x="298.534595524957"
        y="199"
        width="22.352839931153184"
        height="4"
      />
      <rect
        x="323.37108433734943"
        y="253"
        width="22.352839931153184"
        height="5"
      />
      <rect
        x="348.20757314974185"
        y="263"
        width="22.352839931153184"
        height="6"
      />
      <rect
        x="373.04406196213426"
        y="266"
        width="22.352839931153184"
        height="7"
      />
      <rect
        x="397.8805507745267"
        y="263"
        width="22.352839931153184"
        height="5"
      />
      <rect
        x="422.7170395869191"
        y="264"
        width="22.352839931153184"
        height="8"
      />
      <rect
        x="447.5535283993115"
        y="263"
        width="22.352839931153184"
        height="8"
      />
      <rect
        x="472.39001721170393"
        y="266"
        width="22.352839931153184"
        height="7"
      />
      <rect
        x="497.22650602409635"
        y="266"
        width="22.352839931153184"
        height="8"
      />
      <rect
        x="522.0629948364888"
        y="267"
        width="22.352839931153184"
        height="6"
      />
      <rect
        x="546.8994836488812"
        y="264"
        width="22.352839931153184"
        height="4"
      />
      <rect
        x="571.7359724612736"
        y="261"
        width="22.352839931153184"
        height="5"
      />
      <rect
        x="596.5724612736661"
        y="253"
        width="22.352839931153184"
        height="4"
      />
      <rect
        x="621.4089500860586"
        y="235"
        width="22.352839931153184"
        height="5"
      />
      <rect
        x="646.245438898451"
        y="217"
        width="22.352839931153184"
        height="6"
      />
      <rect
        x="671.0819277108434"
        y="207"
        width="22.352839931153184"
        height="4"
      />
      <rect
        x="695.9184165232358"
        y="221"
        width="22.352839931153184"
        height="7"
      />
      <rect
        x="720.7549053356282"
        y="243"
        width="22.352839931153184"
        height="8"
      />
      <rect
        x="745.5913941480206"
        y="256"
        width="22.352839931153184"
        height="6"
      />
      <rect
        x="770.4278829604131"
        y="259"
        width="22.352839931153184"
        height="5"
      />
      <rect
        x="795.2643717728055"
        y="265"
        width="22.352839931153184"
        height="7"
      />
      <rect
        x="820.1008605851979"
        y="266"
        width="22.352839931153184"
        height="4"
      />
      <rect
        x="844.9373493975903"
        y="266"
        width="22.352839931153184"
        height="5"
      />
      <rect
        x="869.7738382099827"
        y="262"
        width="22.352839931153184"
        height="8"
      />
      <rect
        x="894.6103270223751"
        y="260"
        width="22.352839931153184"
        height="7"
      />
      <rect
        x="919.4468158347676"
        y="257"
        width="22.352839931153184"
        height="11"
      />
      <rect
        x="944.28330464716"
        y="244"
        width="22.352839931153184"
        height="24"
      />
      <rect
        x="969.1197934595524"
        y="214"
        width="22.352839931153184"
        height="47"
      />
      <rect
        x="993.9562822719448"
        y="170"
        width="22.352839931153184"
        height="87"
      />
      <rect
        x="1018.7927710843373"
        y="111"
        width="22.352839931153184"
        height="141"
      />
      <rect
        x="1043.6292598967295"
        y="49"
        width="22.352839931153184"
        height="199"
      />
      <rect
        x="1068.465748709122"
        y="5"
        width="22.352839931153184"
        height="236"
      />
      <rect
        x="1093.3022375215144"
        y="0"
        width="22.352839931153184"
        height="238"
      />
      <rect
        x="1118.1387263339068"
        y="26"
        width="22.352839931153184"
        height="203"
      />
      <rect
        x="1142.9752151462992"
        y="81"
        width="22.352839931153184"
        height="147"
      />
      <rect
        x="1167.8117039586916"
        y="133"
        width="22.352839931153184"
        height="93"
      />
      <rect
        x="1192.6481927710843"
        y="176"
        width="22.352839931153184"
        height="52"
      />
      <rect
        x="1217.4846815834767"
        y="204"
        width="22.352839931153184"
        height="27"
      />
      <rect
        x="1242.321170395869"
        y="224"
        width="22.352839931153184"
        height="15"
      />
      <rect
        x="1267.1576592082615"
        y="233"
        width="22.352839931153184"
        height="9"
      />
      <rect
        x="1291.994148020654"
        y="240"
        width="22.352839931153184"
        height="8"
      />
      <rect
        x="1316.8306368330464"
        y="245"
        width="22.352839931153184"
        height="11"
      />
      <rect
        x="1341.6671256454388"
        y="244"
        width="22.352839931153184"
        height="15"
      />
      <rect
        x="1366.5036144578312"
        y="243"
        width="22.352839931153184"
        height="20"
      />
      <rect
        x="1391.3401032702236"
        y="238"
        width="22.352839931153184"
        height="28"
      />
      <rect
        x="1416.176592082616"
        y="237"
        width="22.352839931153184"
        height="31"
      />
    </g>
  </g>
</svg>