<svg xmlns="http://www.w3.org/2000/svg" width="1181" height="1156" fill="none"><g fill="#fff" opacity=".7"><path d="M283.03 587.12a1.33 1.33 0 1 0 .28-2.64 1.33 1.33 0 0 0-.28 2.64Z" opacity=".11"/><path d="M286.53 594.84a1 1 0 1 0 .21-1.98 1 1 0 0 0-.21 1.98ZM309.8 583.34a1 1 0 1 0 .2-1.98 1 1 0 0 0-.2 1.98ZM253.87 575.96a1 1 0 1 0 .21-1.98 1 1 0 0 0-.2 1.98Z"/><path d="M219.5 588.26a1.33 1.33 0 1 0 .3-2.64 1.33 1.33 0 0 0-.3 2.64Z" opacity=".11"/><path d="M208.55 572.4a.66.66 0 1 0 .14-1.32.66.66 0 0 0-.14 1.32ZM278.26 612.62a.66.66 0 1 0 .15-1.31.66.66 0 0 0-.15 1.31ZM422.05 628.17a.66.66 0 1 0 .14-1.32.66.66 0 0 0-.14 1.32ZM497.79 600.32a.66.66 0 1 0 .14-1.32.66.66 0 0 0-.14 1.32ZM518.3 651.25a.66.66 0 1 0 .15-1.32.66.66 0 0 0-.14 1.32ZM60.41 572.4a.66.66 0 1 0 .15-1.32.66.66 0 0 0-.15 1.32Z"/><path d="M54.38 535.72a.66.66 0 1 0 .14-1.32.66.66 0 0 0-.14 1.32ZM24.38 547.82a.66.66 0 1 0 .14-1.31.66.66 0 0 0-.14 1.31ZM41.86 589.75a.66.66 0 1 0 .15-1.32.66.66 0 0 0-.15 1.32ZM201.68 580.33a.66.66 0 1 0 .15-1.32.66.66 0 0 0-.15 1.32ZM274.38 636.23a.66.66 0 1 0 .15-1.32.66.66 0 0 0-.15 1.32ZM401.73 643.32a.66.66 0 1 0 .14-1.32.66.66 0 0 0-.14 1.32Z" opacity=".11"/><path d="M92.54 559.2a.66.66 0 1 0 .14-1.33.66.66 0 0 0-.14 1.32Z" opacity=".3"/><path d="M248.08 539.97a.66.66 0 1 0 .15-1.32.66.66 0 0 0-.15 1.32ZM349.8 549.63a.66.66 0 1 0 .14-1.32.66.66 0 0 0-.14 1.32ZM196.68 595.8a.66.66 0 1 0 .14-1.32.66.66 0 0 0-.14 1.32Z"/><path d="M150.5 590.81a.66.66 0 1 0 .15-1.31.66.66 0 0 0-.14 1.31Z" opacity=".3"/><path d="M100.85 544.08a.66.66 0 1 0 .14-1.32.66.66 0 0 0-.14 1.32Z" opacity=".11"/><path d="M258.25 557.09a.66.66 0 1 0 .14-1.32.66.66 0 0 0-.14 1.32ZM206.54 609.55a.66.66 0 1 0 .14-1.32.66.66 0 0 0-.14 1.32ZM126.02 607.52a.66.66 0 1 0 .14-1.32.66.66 0 0 0-.14 1.32ZM111.67 561.26a.66.66 0 1 0 .14-1.31.66.66 0 0 0-.14 1.31ZM522.12 603.62a.66.66 0 1 0 .14-1.32.66.66 0 0 0-.14 1.32Z" opacity=".3"/><path d="M418.85 565.1a.66.66 0 1 0 .15-1.32.66.66 0 0 0-.15 1.32ZM501.25 630.05a.66.66 0 1 0 .14-1.32.66.66 0 0 0-.14 1.32Z" opacity=".11"/><path d="M333.74 617.96a1.33 1.33 0 1 0 .28-2.64 1.33 1.33 0 0 0-.28 2.64Z" opacity=".3"/><path d="M374.79 602.38a1.33 1.33 0 1 0 .28-2.64 1.33 1.33 0 0 0-.28 2.64Z" opacity=".11"/><path d="M376.96 579.25a1 1 0 1 0 .21-1.97 1 1 0 0 0-.21 1.98ZM323.96 643.6a1 1 0 1 0 .22-1.98 1 1 0 0 0-.22 1.98ZM541.5 680.45a1 1 0 1 0 .22-1.98 1 1 0 0 0-.21 1.98ZM114.67 622.97a1 1 0 1 0 .21-1.98 1 1 0 0 0-.21 1.98ZM28.6 598.32a1 1 0 1 0 .2-1.98 1 1 0 0 0-.2 1.98ZM20.23 570.73a1 1 0 1 0 .21-1.98 1 1 0 0 0-.2 1.98ZM343.88 589.03a1 1 0 1 0 .2-1.98 1 1 0 0 0-.2 1.98ZM223.84 625.43a1 1 0 1 0 .21-1.98 1 1 0 0 0-.21 1.98ZM386.98 671.75a1 1 0 1 0 .21-1.98 1 1 0 0 0-.21 1.98ZM566.6 645.8a1 1 0 1 0 .22-1.99 1 1 0 0 0-.22 1.98ZM586.36 611.23a1 1 0 1 0 .21-1.98 1 1 0 0 0-.22 1.98Z"/><path d="M431.3 585.8a1.33 1.33 0 1 0 .29-2.64 1.33 1.33 0 0 0-.29 2.64Z" opacity=".3"/><path d="M436.36 538.97a1.33 1.33 0 1 0 .28-2.64 1.33 1.33 0 0 0-.28 2.64ZM463.7 603.98a1 1 0 1 0 .21-1.98 1 1 0 0 0-.21 1.98Z"/><path d="M498.47 581.71a1.33 1.33 0 1 0 .29-2.64 1.33 1.33 0 0 0-.29 2.64ZM558.7 635.6a1.33 1.33 0 1 0 .3-2.64 1.33 1.33 0 0 0-.3 2.64ZM481.4 628.58a1.33 1.33 0 1 0 .28-2.64 1.33 1.33 0 0 0-.29 2.64ZM101.6 598.88a1.33 1.33 0 1 0 .28-2.65 1.33 1.33 0 0 0-.28 2.64ZM52.09 556.82a1.33 1.33 0 1 0 .28-2.64 1.33 1.33 0 0 0-.28 2.64Z" opacity=".3"/><path d="M533.8 612.9a1.33 1.33 0 1 0 .29-2.65 1.33 1.33 0 0 0-.29 2.64Z" opacity=".11"/><path d="M148.83 544.6a1.33 1.33 0 1 0 .29-2.65 1.33 1.33 0 0 0-.3 2.64Z" opacity=".3"/><path d="M132.45 529.48a1.33 1.33 0 1 0 .28-2.64 1.33 1.33 0 0 0-.28 2.64Z" opacity=".11"/><path d="M122.61 571.12a1.33 1.33 0 1 0 .29-2.64 1.33 1.33 0 0 0-.29 2.64Z" opacity=".3"/><path d="M163.9 574.9a1 1 0 1 0 .21-1.97 1 1 0 0 0-.21 1.98Z"/><path d="M532.88 410.36a1.33 1.33 0 1 0 .29-2.64 1.33 1.33 0 0 0-.29 2.64Z" opacity=".11"/><path d="M536.38 418.07a1 1 0 1 0 .21-1.97 1 1 0 0 0-.2 1.97ZM559.65 406.58a1 1 0 1 0 .21-1.98 1 1 0 0 0-.21 1.98ZM503.73 399.2a1 1 0 1 0 .21-1.98 1 1 0 0 0-.21 1.98Z"/><path d="M469.36 411.5a1.33 1.33 0 1 0 .29-2.64 1.33 1.33 0 0 0-.29 2.64Z" opacity=".11"/><path d="M458.4 395.64a.66.66 0 1 0 .15-1.33.66.66 0 0 0-.15 1.33ZM528.12 435.86a.66.66 0 1 0 .14-1.32.66.66 0 0 0-.14 1.32ZM671.9 451.4a.66.66 0 1 0 .15-1.31.66.66 0 0 0-.14 1.32ZM747.64 423.56a.66.66 0 1 0 .14-1.32.66.66 0 0 0-.14 1.32ZM768.16 474.49a.66.66 0 1 0 .15-1.32.66.66 0 0 0-.14 1.32ZM310.27 395.64a.66.66 0 1 0 .14-1.32.66.66 0 0 0-.14 1.32Z"/><path d="M304.23 358.95a.66.66 0 1 0 .14-1.32.66.66 0 0 0-.14 1.32ZM274.23 371.06a.66.66 0 1 0 .14-1.32.66.66 0 0 0-.14 1.32ZM291.72 412.98a.66.66 0 1 0 .14-1.31.66.66 0 1 0-.14 1.31ZM451.54 403.56a.66.66 0 1 0 .14-1.31.66.66 0 1 0-.14 1.31ZM524.24 459.47a.66.66 0 1 0 .14-1.32.66.66 0 0 0-.14 1.32ZM651.58 466.56a.66.66 0 1 0 .15-1.32.66.66 0 0 0-.15 1.32Z" opacity=".11"/><path d="M342.4 382.43a.66.66 0 1 0 .14-1.32.66.66 0 0 0-.15 1.32Z" opacity=".3"/><path d="M497.94 363.2a.66.66 0 1 0 .14-1.32.66.66 0 0 0-.14 1.33ZM599.65 372.87a.66.66 0 1 0 .14-1.32.66.66 0 0 0-.14 1.32ZM446.53 419.04a.66.66 0 1 0 .14-1.32.66.66 0 0 0-.14 1.32Z"/><path d="M400.36 414.05a.66.66 0 1 0 .14-1.32.66.66 0 0 0-.14 1.32Z" opacity=".3"/><path d="M350.7 367.31a.66.66 0 1 0 .15-1.31.66.66 0 0 0-.15 1.31Z" opacity=".11"/><path d="M508.1 380.32a.66.66 0 1 0 .15-1.32.66.66 0 0 0-.14 1.32ZM456.4 432.79a.66.66 0 1 0 .14-1.32.66.66 0 0 0-.15 1.32ZM375.87 430.75a.66.66 0 1 0 .14-1.31.66.66 0 0 0-.14 1.31ZM361.52 384.5a.66.66 0 1 0 .15-1.32.66.66 0 0 0-.15 1.32ZM771.97 426.86a.66.66 0 1 0 .15-1.32.66.66 0 0 0-.15 1.32Z" opacity=".3"/><path d="M668.7 388.34a.66.66 0 1 0 .15-1.32.66.66 0 0 0-.14 1.32ZM751.1 453.29a.66.66 0 1 0 .15-1.32.66.66 0 0 0-.15 1.32Z" opacity=".11"/><path d="M583.6 441.2a1.33 1.33 0 1 0 .28-2.64 1.33 1.33 0 0 0-.29 2.64Z" opacity=".3"/><path d="M624.64 425.61a1.33 1.33 0 1 0 .3-2.64 1.33 1.33 0 0 0-.3 2.64Z" opacity=".11"/><path d="M626.81 402.5a1 1 0 1 0 .22-1.99 1 1 0 0 0-.22 1.98ZM573.82 466.83a1 1 0 1 0 .21-1.98 1 1 0 0 0-.21 1.98ZM791.37 503.69a1 1 0 1 0 .2-1.99 1 1 0 0 0-.2 1.99ZM364.52 446.2a1 1 0 1 0 .22-1.97 1 1 0 0 0-.22 1.98ZM278.45 421.56a1 1 0 1 0 .21-1.98 1 1 0 0 0-.21 1.98ZM270.09 393.97a1 1 0 1 0 .21-1.98 1 1 0 0 0-.21 1.98ZM593.73 412.27a1 1 0 1 0 .22-1.98 1 1 0 0 0-.22 1.98ZM473.7 448.67a1 1 0 1 0 .2-1.98 1 1 0 0 0-.2 1.98ZM636.84 495a1 1 0 1 0 .21-1.99 1 1 0 0 0-.21 1.98ZM816.46 469.03a1 1 0 1 0 .21-1.98 1 1 0 0 0-.2 1.98ZM836.21 434.47a1 1 0 1 0 .22-1.98 1 1 0 0 0-.22 1.98Z"/><path d="M681.16 409.04a1.33 1.33 0 1 0 .28-2.64 1.33 1.33 0 0 0-.28 2.64Z" opacity=".3"/><path d="M686.21 362.2a1.33 1.33 0 1 0 .29-2.64 1.33 1.33 0 0 0-.29 2.64ZM713.55 427.22a1 1 0 1 0 .22-1.98 1 1 0 0 0-.22 1.98Z"/><path d="M748.33 404.95a1.33 1.33 0 1 0 .28-2.63 1.33 1.33 0 0 0-.28 2.63ZM808.56 458.84a1.33 1.33 0 1 0 .28-2.65 1.33 1.33 0 0 0-.28 2.65ZM731.25 451.81a1.33 1.33 0 1 0 .28-2.64 1.33 1.33 0 0 0-.28 2.64ZM351.45 422.1a1.33 1.33 0 1 0 .3-2.63 1.33 1.33 0 0 0-.3 2.64ZM301.94 380.06a1.33 1.33 0 1 0 .29-2.64 1.33 1.33 0 0 0-.29 2.64Z" opacity=".3"/><path d="M783.65 436.13a1.33 1.33 0 1 0 .3-2.64 1.33 1.33 0 0 0-.3 2.64Z" opacity=".11"/><path d="M398.69 367.83a1.33 1.33 0 1 0 .28-2.64 1.33 1.33 0 0 0-.29 2.64Z" opacity=".3"/><path d="M382.3 352.71a1.33 1.33 0 1 0 .29-2.64 1.33 1.33 0 0 0-.29 2.64Z" opacity=".11"/><path d="M372.47 394.35a1.33 1.33 0 1 0 .28-2.64 1.33 1.33 0 0 0-.28 2.64Z" opacity=".3"/><path d="M413.76 398.15a1 1 0 1 0 .21-1.98 1 1 0 0 0-.21 1.98Z"/><path d="M868.53 551.18a1.33 1.33 0 1 0 .28-2.64 1.33 1.33 0 0 0-.28 2.64Z" opacity=".11"/><path d="M872.03 558.9a1 1 0 1 0 .21-1.98 1 1 0 0 0-.21 1.98ZM895.3 547.4a1 1 0 1 0 .2-1.97 1 1 0 0 0-.2 1.98ZM839.37 540.02a1 1 0 1 0 .21-1.98 1 1 0 0 0-.2 1.98Z"/><path d="M805.01 552.32a1.33 1.33 0 1 0 .29-2.64 1.33 1.33 0 0 0-.29 2.64Z" opacity=".11"/><path d="M794.05 536.46a.66.66 0 1 0 .14-1.32.66.66 0 0 0-.14 1.32ZM863.76 576.69a.66.66 0 1 0 .15-1.32.66.66 0 0 0-.14 1.32ZM1007.55 592.23a.66.66 0 1 0 .14-1.32.66.66 0 0 0-.14 1.32ZM1083.29 564.38c.36.04.69-.23.73-.59a.66.66 0 1 0-.73.59ZM1103.81 615.3c.37.05.69-.21.73-.58a.66.66 0 0 0-.59-.73.67.67 0 0 0-.73.59c-.04.36.23.69.59.73ZM645.91 536.46a.66.66 0 1 0 .15-1.32.66.66 0 0 0-.15 1.32Z"/><path d="M639.88 499.78a.66.66 0 1 0 .14-1.32.66.66 0 1 0-.14 1.32ZM609.88 511.88a.66.66 0 1 0 .14-1.31.66.66 0 0 0-.14 1.31ZM627.36 553.8a.66.66 0 1 0 .15-1.31.66.66 0 0 0-.15 1.32ZM787.18 544.38a.66.66 0 1 0 .15-1.31.66.66 0 0 0-.15 1.31ZM859.88 600.29a.66.66 0 1 0 .14-1.32.66.66 0 0 0-.14 1.32ZM987.23 607.38a.66.66 0 1 0 .14-1.32.66.66 0 0 0-.14 1.32Z" opacity=".11"/><path d="M678.04 523.25a.66.66 0 1 0 .14-1.31.66.66 0 0 0-.14 1.31Z" opacity=".3"/><path d="M833.58 504.03a.66.66 0 1 0 .15-1.32.66.66 0 0 0-.15 1.32ZM935.3 513.69a.66.66 0 1 0 .14-1.32.66.66 0 0 0-.14 1.32ZM782.17 559.86a.66.66 0 1 0 .15-1.31.66.66 0 0 0-.15 1.31Z"/><path d="M736 554.87a.66.66 0 1 0 .15-1.32.66.66 0 0 0-.14 1.32Z" opacity=".3"/><path d="M686.35 508.14a.66.66 0 1 0 .14-1.32.66.66 0 0 0-.14 1.32Z" opacity=".11"/><path d="M843.75 521.14a.66.66 0 1 0 .14-1.31.66.66 0 0 0-.14 1.31ZM792.04 573.6a.66.66 0 1 0 .14-1.31.66.66 0 0 0-.14 1.32ZM711.52 571.57a.66.66 0 1 0 .14-1.31.66.66 0 0 0-.14 1.31ZM697.17 525.32a.66.66 0 1 0 .14-1.32.66.66 0 0 0-.14 1.32ZM1107.62 567.68c.36.04.69-.22.73-.59a.67.67 0 0 0-.59-.73.67.67 0 0 0-.73.59c-.04.36.22.69.59.73Z" opacity=".3"/><path d="M1004.35 529.16c.37.04.7-.22.73-.59a.66.66 0 1 0-1.31-.14c-.04.37.22.7.58.73ZM1086.75 594.11c.36.04.69-.22.73-.59a.67.67 0 0 0-.59-.73.67.67 0 0 0-.73.6c-.04.36.22.68.59.72Z" opacity=".11"/><path d="M919.24 582.01a1.33 1.33 0 1 0 .28-2.64 1.33 1.33 0 0 0-.28 2.64Z" opacity=".3"/><path d="M960.3 566.44a1.33 1.33 0 1 0 .28-2.64 1.33 1.33 0 0 0-.29 2.64Z" opacity=".11"/><path d="M962.46 543.32a1 1 0 1 0 .21-1.98 1 1 0 0 0-.21 1.98ZM909.47 607.65a1 1 0 1 0 .21-1.98 1 1 0 0 0-.21 1.98ZM1127.01 644.51a1 1 0 1 0 .22-1.98 1 1 0 0 0-.22 1.98ZM700.17 587.03a1 1 0 1 0 .21-1.98 1 1 0 0 0-.21 1.98ZM614.1 562.38a1 1 0 1 0 .2-1.97 1 1 0 0 0-.2 1.98ZM605.73 534.8a1 1 0 1 0 .22-1.99 1 1 0 0 0-.22 1.98ZM929.38 553.09a1 1 0 1 0 .21-1.98 1 1 0 0 0-.21 1.98ZM809.34 589.5a1 1 0 1 0 .21-1.99 1 1 0 0 0-.21 1.98ZM972.48 635.82a1 1 0 1 0 .21-1.98 1 1 0 0 0-.21 1.98ZM1152.11 609.86a1 1 0 1 0 .2-1.98 1 1 0 0 0-.2 1.98ZM1171.86 575.3a1 1 0 1 0 .2-1.99 1 1 0 0 0-.2 1.98Z"/><path d="M1016.8 549.86a1.33 1.33 0 1 0 .28-2.64 1.33 1.33 0 0 0-.28 2.64Z" opacity=".3"/><path d="M1021.86 503.03a1.32 1.32 0 1 0 .28-2.64 1.32 1.32 0 1 0-.28 2.64ZM1049.2 568.04a1 1 0 1 0 .22-1.98 1 1 0 0 0-.22 1.98Z"/><path d="M1083.97 545.78a1.32 1.32 0 1 0 .29-2.64 1.32 1.32 0 0 0-.29 2.64ZM1144.2 599.66a1.33 1.33 0 1 0 .3-2.64 1.33 1.33 0 0 0-.3 2.64ZM1066.89 592.64c.73.08 1.39-.45 1.47-1.18a1.32 1.32 0 1 0-2.64-.28c-.08.72.44 1.38 1.17 1.46ZM687.1 562.93a1.33 1.33 0 1 0 .28-2.64 1.33 1.33 0 0 0-.28 2.64ZM637.59 520.88a1.33 1.33 0 1 0 .28-2.64 1.33 1.33 0 0 0-.28 2.64Z" opacity=".3"/><path d="M1119.3 576.95c.73.08 1.39-.44 1.46-1.17a1.32 1.32 0 0 0-1.17-1.47 1.34 1.34 0 0 0-1.47 1.18c-.07.73.45 1.38 1.18 1.46Z" opacity=".11"/><path d="M734.33 508.65a1.33 1.33 0 1 0 .29-2.64 1.33 1.33 0 0 0-.29 2.64Z" opacity=".3"/><path d="M717.95 493.54a1.33 1.33 0 1 0 .28-2.64 1.33 1.33 0 0 0-.28 2.64Z" opacity=".11"/><path d="M708.11 535.18a1.33 1.33 0 1 0 .3-2.64 1.33 1.33 0 0 0-.3 2.64Z" opacity=".3"/><path d="M749.4 538.97a1 1 0 1 0 .22-1.98 1 1 0 0 0-.22 1.98Z"/></g></svg>