<?xml version="1.0" encoding="UTF-8"?>
<!DOCTYPE svg PUBLIC "-//W3C//DTD SVG 1.1//EN" "http://www.w3.org/Graphics/SVG/1.1/DTD/svg11.dtd">
<svg xmlns="http://www.w3.org/2000/svg" version="1.1" width="2480px" height="569px" style="shape-rendering:geometricPrecision; text-rendering:geometricPrecision; image-rendering:optimizeQuality; fill-rule:evenodd; clip-rule:evenodd" xmlns:xlink="http://www.w3.org/1999/xlink">
<g><path style="opacity:0.977" fill="#fefffe" d="M 347.5,206.5 C 383.589,262.29 420.089,318.623 457,375.5C 487.035,408.695 523.202,416.862 565.5,400C 571.449,398.027 576.783,395.027 581.5,391C 571.611,377.393 562.444,363.226 554,348.5C 514.9,289.231 476.4,229.564 438.5,169.5C 426.648,131.205 439.982,106.705 478.5,96C 486.833,95.3333 495.167,95.3333 503.5,96C 519.086,100.982 530.42,110.316 537.5,124C 576.274,181.034 614.441,238.534 652,296.5C 689.651,238.203 726.818,179.87 763.5,121.5C 773.297,108.765 785.964,100.265 801.5,96C 890.833,95.3333 980.167,95.3333 1069.5,96C 1110.15,112.338 1121.49,140.671 1103.5,181C 1083.63,212.06 1063.63,242.393 1043.5,272C 1043.83,272.333 1044.17,272.667 1044.5,273C 1014.59,316.767 985.925,360.767 958.5,405C 930.459,449.467 893.793,482.467 848.5,504C 817.312,517.398 784.646,522.065 750.5,518C 712.632,513.07 679.799,500.57 652,480.5C 639.899,486.897 627.399,493.73 614.5,501C 583.363,514.691 550.696,520.524 516.5,518.5C 493.444,520.185 471.444,516.352 450.5,507C 417.571,492.044 390.404,470.21 369,441.5C 351.912,414.647 334.745,387.98 317.5,361.5C 285.866,314.412 255.199,267.412 225.5,220.5C 214.728,204.472 204.062,188.306 193.5,172C 182.467,132.225 196.467,106.892 235.5,96C 244.947,94.9829 254.281,95.4829 263.5,97.5C 270.051,100.936 276.051,105.103 281.5,110C 289.356,117.836 296.356,126.169 302.5,135C 302.167,135.333 301.833,135.667 301.5,136C 317.399,159.766 332.732,183.266 347.5,206.5 Z M 764.5,312.5 C 797.677,262.003 831.01,211.503 864.5,161C 912.167,160.333 959.833,160.333 1007.5,161C 960.87,230.813 914.37,301.313 868,372.5C 826.995,417.12 779.828,427.287 726.5,403C 721.5,400 716.5,397 711.5,394C 728.979,367.228 746.645,340.061 764.5,312.5 Z"/></g>
<g><path style="opacity:0.978" fill="#fefffe" d="M 1386.5,156.5 C 1402.26,153.624 1412.76,159.624 1418,174.5C 1418.33,226.833 1418.67,279.167 1419,331.5C 1448.86,301.97 1479.03,272.803 1509.5,244C 1525.78,236.89 1537.61,241.39 1545,257.5C 1547.61,266.706 1545.95,275.039 1540,282.5C 1521.2,299.634 1502.7,317.134 1484.5,335C 1505.67,367.5 1526.83,400 1548,432.5C 1552.88,447.196 1548.72,458.362 1535.5,466C 1524.05,470.06 1514.21,467.56 1506,458.5C 1486.73,428.958 1467.23,399.625 1447.5,370.5C 1437.55,378.952 1428.05,387.952 1419,397.5C 1418.67,414.167 1418.33,430.833 1418,447.5C 1415.28,460.552 1407.28,467.552 1394,468.5C 1383.38,468.023 1375.71,463.023 1371,453.5C 1369.34,360.223 1369.01,266.89 1370,173.5C 1373.02,165.316 1378.52,159.649 1386.5,156.5 Z"/></g>
<g><path style="opacity:0.004" fill="#fefffe" d="M 347.5,205.5 C 348.833,206.167 348.833,206.167 347.5,205.5 Z"/></g>
<g><path style="opacity:0.004" fill="#fefffe" d="M 225.5,220.5 C 224.833,221.167 224.833,221.167 225.5,220.5 Z"/></g>
<g><path style="opacity:0.979" fill="#fefffe" d="M 1846.5,238.5 C 1866.4,235.908 1877.24,244.575 1879,264.5C 1906.17,238.265 1937.67,231.431 1973.5,244C 2002.79,257.63 2021.62,280.13 2030,311.5C 2031.85,318.741 2033.18,326.074 2034,333.5C 2034.67,372.833 2034.67,412.167 2034,451.5C 2026.04,467.398 2013.87,471.898 1997.5,465C 1990.81,460.639 1986.98,454.472 1986,446.5C 1985.67,410.5 1985.33,374.5 1985,338.5C 1979.17,298.021 1956.34,281.854 1916.5,290C 1894.07,299.787 1881.57,316.954 1879,341.5C 1878.67,377.5 1878.33,413.5 1878,449.5C 1871.67,465.915 1860.17,471.415 1843.5,466C 1836.42,462.587 1831.92,457.087 1830,449.5C 1829.33,385.167 1829.33,320.833 1830,256.5C 1832.59,247.745 1838.09,241.745 1846.5,238.5 Z"/></g>
<g><path style="opacity:0.977" fill="#fefffe" d="M 1199.5,239.5 C 1251.01,235.174 1290.18,254.84 1317,298.5C 1324.69,312.557 1329.35,327.557 1331,343.5C 1331.67,378.5 1331.67,413.5 1331,448.5C 1324.67,465.417 1312.83,471.25 1295.5,466C 1288.3,461.8 1283.8,455.633 1282,447.5C 1254.13,468.923 1222.96,475.757 1188.5,468C 1137.73,453.229 1108.23,419.729 1100,367.5C 1096.71,324.265 1111.87,289.098 1145.5,262C 1161.82,250.334 1179.82,242.834 1199.5,239.5 Z M 1204.5,288.5 C 1237.92,285.482 1262.08,298.815 1277,328.5C 1288.61,362.935 1279.77,390.769 1250.5,412C 1218.6,428.549 1190.1,424.049 1165,398.5C 1145.1,372.077 1143.77,344.744 1161,316.5C 1172.01,301.642 1186.51,292.308 1204.5,288.5 Z"/></g>
<g><path style="opacity:0.977" fill="#fefffe" d="M 1659.5,239.5 C 1711.01,235.174 1750.18,254.84 1777,298.5C 1784.69,312.557 1789.35,327.557 1791,343.5C 1791.67,378.5 1791.67,413.5 1791,448.5C 1784.67,465.417 1772.83,471.25 1755.5,466C 1748.3,461.8 1743.8,455.633 1742,447.5C 1714.13,468.923 1682.96,475.757 1648.5,468C 1597.73,453.229 1568.23,419.729 1560,367.5C 1556.71,324.265 1571.87,289.098 1605.5,262C 1621.82,250.334 1639.82,242.834 1659.5,239.5 Z M 1664.5,288.5 C 1697.92,285.482 1722.08,298.815 1737,328.5C 1748.61,362.935 1739.77,390.769 1710.5,412C 1678.6,428.549 1650.1,424.049 1625,398.5C 1605.1,372.077 1603.77,344.744 1621,316.5C 1632.01,301.642 1646.51,292.308 1664.5,288.5 Z"/></g>
<g><path style="opacity:0.977" fill="#fefffe" d="M 2157.5,239.5 C 2209.01,235.174 2248.18,254.84 2275,298.5C 2282.69,312.557 2287.35,327.557 2289,343.5C 2289.67,378.5 2289.67,413.5 2289,448.5C 2282.67,465.417 2270.83,471.25 2253.5,466C 2246.3,461.8 2241.8,455.633 2240,447.5C 2212.13,468.923 2180.96,475.757 2146.5,468C 2095.73,453.229 2066.23,419.729 2058,367.5C 2054.71,324.265 2069.87,289.098 2103.5,262C 2119.82,250.334 2137.82,242.834 2157.5,239.5 Z M 2162.5,288.5 C 2195.92,285.482 2220.08,298.815 2235,328.5C 2246.61,362.935 2237.77,390.769 2208.5,412C 2176.6,428.549 2148.1,424.049 2123,398.5C 2103.1,372.077 2101.77,344.744 2119,316.5C 2130.01,301.642 2144.51,292.308 2162.5,288.5 Z"/></g>
<g><path style="opacity:0.004" fill="#fefffe" d="M 317.5,361.5 C 316.833,362.167 316.833,362.167 317.5,361.5 Z"/></g>
</svg>
