<?xml version="1.0" encoding="UTF-8"?>
<!DOCTYPE svg PUBLIC "-//W3C//DTD SVG 1.1//EN" "http://www.w3.org/Graphics/SVG/1.1/DTD/svg11.dtd">
<svg xmlns="http://www.w3.org/2000/svg" version="1.1" width="2480px" height="1748px" style="shape-rendering:geometricPrecision; text-rendering:geometricPrecision; image-rendering:optimizeQuality; fill-rule:evenodd; clip-rule:evenodd" xmlns:xlink="http://www.w3.org/1999/xlink">
<g><path style="opacity:0.976" fill="#fefffe" d="M 556.5,534.5 C 559.292,538.113 561.792,542.113 564,546.5C 564.333,546.167 564.667,545.833 565,545.5C 566.165,550.298 568.499,554.298 572,557.5C 573,559.833 574,562.167 575,564.5C 585.917,579.333 596.083,594.666 605.5,610.5C 607.904,611.008 608.571,612.175 607.5,614C 617.162,627.812 626.162,641.978 634.5,656.5C 636.529,655.371 636.863,655.871 635.5,658C 638.625,660.408 640.625,663.575 641.5,667.5C 643.773,669.79 645.773,672.123 647.5,674.5C 647.277,677.114 648.444,678.781 651,679.5C 651.306,681.906 652.139,684.073 653.5,686C 661.436,697.352 669.269,708.852 677,720.5C 677.617,721.449 677.451,722.282 676.5,723C 678.521,723.513 680.021,724.68 681,726.5C 685.688,734.55 690.354,742.55 695,750.5C 698.031,754.708 701.198,758.875 704.5,763C 704.167,763.333 703.833,763.667 703.5,764C 705.585,766.122 707.585,768.289 709.5,770.5C 709.291,771.086 708.957,771.586 708.5,772C 712.604,777.556 716.938,782.89 721.5,788C 721.043,788.414 720.709,788.914 720.5,789.5C 733.838,809.348 747.005,829.348 760,849.5C 761.128,851.345 761.628,853.345 761.5,855.5C 762.675,855.281 763.675,855.614 764.5,856.5C 769.926,866.361 776.093,875.694 783,884.5C 786.383,889.932 789.216,895.599 791.5,901.5C 793.103,901.312 794.437,901.812 795.5,903C 794.833,903.333 794.167,903.667 793.5,904C 799.577,910.751 804.91,918.084 809.5,926C 808.116,927.957 808.783,928.957 811.5,929C 811.167,929.333 810.833,929.667 810.5,930C 811.931,930.465 813.097,931.299 814,932.5C 814.36,934.608 815.027,936.608 816,938.5C 816.333,938.167 816.667,937.833 817,937.5C 820.883,944.926 825.05,952.26 829.5,959.5C 830.325,960.386 831.325,960.719 832.5,960.5C 832.917,963.343 833.917,966.01 835.5,968.5C 842.713,979.217 850.213,989.884 858,1000.5C 858.483,1001.45 858.649,1002.45 858.5,1003.5C 861.694,1003.18 862.694,1004.34 861.5,1007C 863.259,1008.01 864.426,1009.51 865,1011.5C 865.333,1011.17 865.667,1010.83 866,1010.5C 866.483,1011.45 866.649,1012.45 866.5,1013.5C 869.05,1013.56 870.55,1014.89 871,1017.5C 871.333,1017.17 871.667,1016.83 872,1016.5C 874.942,1021.28 878.776,1025.28 883.5,1028.5C 884.386,1029.32 884.719,1030.32 884.5,1031.5C 889.248,1034.1 893.914,1036.93 898.5,1040C 899.337,1041.01 899.67,1042.18 899.5,1043.5C 901.901,1044.05 904.235,1044.88 906.5,1046C 910.206,1048.51 913.873,1051.01 917.5,1053.5C 921.094,1055.03 924.761,1056.36 928.5,1057.5C 928.833,1058.17 929.167,1058.83 929.5,1059.5C 933.779,1061.01 938.113,1062.34 942.5,1063.5C 943.167,1064.17 943.833,1064.83 944.5,1065.5C 952.223,1067.19 959.889,1069.02 967.5,1071C 967.167,1071.33 966.833,1071.67 966.5,1072C 978.122,1072.01 988.288,1072.85 997,1074.5C 999.833,1074.33 1002.67,1074.17 1005.5,1074C 1004.17,1073.67 1002.83,1073.33 1001.5,1073C 1010.19,1072.83 1018.85,1072.33 1027.5,1071.5C 1028.5,1070.83 1029.5,1070.17 1030.5,1069.5C 1037.82,1068.22 1045.15,1067.06 1052.5,1066C 1052.17,1065.67 1051.83,1065.33 1051.5,1065C 1057.09,1063.02 1062.76,1061.18 1068.5,1059.5C 1078.12,1056 1087.12,1051.5 1095.5,1046C 1098.79,1045.75 1101.79,1044.75 1104.5,1043C 1105.43,1041.81 1106.1,1040.47 1106.5,1039C 1100.75,1031.92 1095.42,1024.59 1090.5,1017C 1090.83,1016.67 1091.17,1016.33 1091.5,1016C 1085.53,1008.89 1080.36,1000.72 1076,991.5C 1075.67,991.833 1075.33,992.167 1075,992.5C 1074.01,989.155 1072.34,986.155 1070,983.5C 1069.67,983.833 1069.33,984.167 1069,984.5C 1066.72,977.661 1063.22,971.495 1058.5,966C 1059.34,964.334 1058.84,964.167 1057,965.5C 1056.38,964.551 1056.55,963.718 1057.5,963C 1056.35,962.355 1055.35,961.522 1054.5,960.5C 1051.16,954.832 1047.83,949.165 1044.5,943.5C 1043.68,942.614 1042.68,942.281 1041.5,942.5C 1041.66,941.127 1041.49,939.793 1041,938.5C 1037.57,934.228 1034.74,929.562 1032.5,924.5C 1031.5,924 1030.5,923.5 1029.5,923C 1029.83,922.667 1030.17,922.333 1030.5,922C 1021.94,909.434 1014.1,897.6 1007,886.5C 1005.59,884.348 1004.75,882.014 1004.5,879.5C 1003.32,879.719 1002.32,879.386 1001.5,878.5C 996.609,869.751 991.443,861.085 986,852.5C 984.745,851.789 983.579,850.956 982.5,850C 982.833,849.667 983.167,849.333 983.5,849C 977.078,838.906 970.245,829.073 963,819.5C 962.667,817.833 962.333,816.167 962,814.5C 961.667,814.833 961.333,815.167 961,815.5C 959.905,813.068 958.405,810.902 956.5,809C 956.645,808.228 956.978,807.561 957.5,807C 955.609,804.706 953.609,802.54 951.5,800.5C 946.525,792.332 941.692,783.999 937,775.5C 934.099,773.189 932.099,770.189 931,766.5C 927.683,763.194 924.849,759.528 922.5,755.5C 920.917,753.01 919.917,750.343 919.5,747.5C 918.325,747.719 917.325,747.386 916.5,746.5C 911.349,738.419 906.682,730.753 902.5,723.5C 901.3,721.235 899.633,719.402 897.5,718C 897.833,717.667 898.167,717.333 898.5,717C 895.63,713.432 893.13,709.599 891,705.5C 890.667,705.833 890.333,706.167 890,706.5C 889.319,702.063 887.153,698.563 883.5,696C 884.28,694.927 884.113,693.76 883,692.5C 882.667,692.833 882.333,693.167 882,693.5C 878.67,686.713 874.837,680.38 870.5,674.5C 860.282,657.082 849.282,640.082 837.5,623.5C 836.543,620.72 835.376,618.053 834,615.5C 833.667,615.833 833.333,616.167 833,616.5C 832.355,615.354 831.522,614.354 830.5,613.5C 831.609,612.035 831.109,611.035 829,610.5C 828.383,609.551 828.549,608.718 829.5,608C 828.234,607.691 827.067,607.191 826,606.5C 823.7,599.207 821.366,591.207 819,582.5C 816.482,563.016 817.148,543.683 821,524.5C 821.333,525.167 821.667,525.833 822,526.5C 822.333,523.5 822.667,520.5 823,517.5C 827.742,508.27 833.909,499.77 841.5,492C 841.167,491.667 840.833,491.333 840.5,491C 845.475,488.014 850.141,484.681 854.5,481C 855.167,480 855.833,479 856.5,478C 859.445,476.869 862.445,476.036 865.5,475.5C 865.33,474.178 865.663,473.011 866.5,472C 869.621,470.392 872.954,469.559 876.5,469.5C 876.33,468.178 876.663,467.011 877.5,466C 881.454,464.846 885.454,464.013 889.5,463.5C 889.36,461.876 890.027,460.71 891.5,460C 896.319,459.476 900.986,458.476 905.5,457C 921.833,456.333 938.167,456.333 954.5,457C 958.338,458.474 962.338,459.474 966.5,460C 969.677,462.85 973.344,465.016 977.5,466.5C 978.386,467.325 978.719,468.325 978.5,469.5C 981.871,470.323 985.204,471.489 988.5,473C 987.167,473.667 987.167,474.333 988.5,475C 991.079,476.496 993.745,477.829 996.5,479C 996.043,479.414 995.709,479.914 995.5,480.5C 1001.15,485.639 1006.98,491.306 1013,497.5C 1014.41,499.652 1015.25,501.986 1015.5,504.5C 1016.68,504.281 1017.68,504.614 1018.5,505.5C 1019.29,509.291 1021.29,512.291 1024.5,514.5C 1026.08,516.99 1027.08,519.657 1027.5,522.5C 1028.68,522.281 1029.68,522.614 1030.5,523.5C 1035.43,531.036 1040.1,538.703 1044.5,546.5C 1045.83,548.5 1047.5,550.167 1049.5,551.5C 1049.29,552.086 1048.96,552.586 1048.5,553C 1050.49,554.319 1051.65,556.152 1052,558.5C 1052.33,558.167 1052.67,557.833 1053,557.5C 1053.5,558.667 1054.33,559.5 1055.5,560C 1054.7,561.749 1055.37,563.082 1057.5,564C 1057.17,564.333 1056.83,564.667 1056.5,565C 1057.93,566.886 1059.6,568.553 1061.5,570C 1061.17,570.333 1060.83,570.667 1060.5,571C 1070.59,583.713 1079.26,597.213 1086.5,611.5C 1087.5,611.5 1088.5,611.5 1089.5,611.5C 1089.34,612.873 1089.51,614.207 1090,615.5C 1104.38,635.076 1117.72,655.409 1130,676.5C 1131,677.167 1132,677.833 1133,678.5C 1134.14,681.102 1134.97,683.769 1135.5,686.5C 1136.68,686.281 1137.68,686.614 1138.5,687.5C 1139.71,691.284 1141.88,694.284 1145,696.5C 1145.86,698.868 1146.69,701.202 1147.5,703.5C 1148.55,703.351 1149.55,703.517 1150.5,704C 1150.17,704.333 1149.83,704.667 1149.5,705C 1160.46,720.296 1170.62,736.13 1180,752.5C 1181,753.167 1182,753.833 1183,754.5C 1186.92,762.007 1191.59,769.007 1197,775.5C 1197.62,776.449 1197.45,777.282 1196.5,778C 1197.62,778.249 1198.62,778.749 1199.5,779.5C 1208.57,794.639 1217.9,809.639 1227.5,824.5C 1232.66,830.833 1237.66,837.333 1242.5,844C 1242.17,844.333 1241.83,844.667 1241.5,845C 1243.82,846.566 1245.32,848.733 1246,851.5C 1248.85,847.125 1251.68,842.791 1254.5,838.5C 1255.43,837.311 1255.76,835.978 1255.5,834.5C 1256.5,834.5 1257.5,834.5 1258.5,834.5C 1258.92,831.235 1260.08,828.235 1262,825.5C 1262.33,825.833 1262.67,826.167 1263,826.5C 1263.5,823.483 1265,821.149 1267.5,819.5C 1267.29,818.914 1266.96,818.414 1266.5,818C 1271.49,812.098 1275.32,805.931 1278,799.5C 1279.01,798.663 1280.18,798.33 1281.5,798.5C 1285.69,788.128 1291.53,778.794 1299,770.5C 1300,768.167 1301,765.833 1302,763.5C 1308.79,754.372 1314.96,744.706 1320.5,734.5C 1323.39,730.537 1326.39,726.704 1329.5,723C 1329.04,722.586 1328.71,722.086 1328.5,721.5C 1329.89,721.891 1330.89,721.058 1331.5,719C 1331.17,718.667 1330.83,718.333 1330.5,718C 1333.19,715.973 1335.53,713.639 1337.5,711C 1336.98,710.439 1336.64,709.772 1336.5,709C 1341.85,701.651 1347.19,694.318 1352.5,687C 1351.83,686.667 1351.17,686.333 1350.5,686C 1351.56,684.812 1352.9,684.312 1354.5,684.5C 1354.92,681.657 1355.92,678.99 1357.5,676.5C 1360.31,674.023 1362.31,671.023 1363.5,667.5C 1364.32,666.614 1365.32,666.281 1366.5,666.5C 1366.92,663.657 1367.92,660.99 1369.5,658.5C 1379.78,642.962 1389.45,628.128 1398.5,614C 1398.17,613.667 1397.83,613.333 1397.5,613C 1398.5,612.5 1399.5,612 1400.5,611.5C 1405.31,604.375 1409.65,597.042 1413.5,589.5C 1417.42,585.72 1420.42,581.054 1422.5,575.5C 1424.02,573.815 1425.68,572.315 1427.5,571C 1427.17,570.667 1426.83,570.333 1426.5,570C 1438.23,552.395 1449.57,535.062 1460.5,518C 1459.69,517.692 1459.03,517.192 1458.5,516.5C 1461.34,514.828 1463.67,512.661 1465.5,510C 1465.04,508.057 1466.04,506.724 1468.5,506C 1467.36,505.259 1467.36,504.425 1468.5,503.5C 1476.31,495 1484.64,487.167 1493.5,480C 1493.17,479.667 1492.83,479.333 1492.5,479C 1495.19,477.632 1497.85,476.299 1500.5,475C 1501.83,474.333 1501.83,473.667 1500.5,473C 1503.83,471.667 1507.17,470.333 1510.5,469C 1511.17,468 1511.83,467 1512.5,466C 1516.37,464.488 1520.37,463.655 1524.5,463.5C 1524.33,462.178 1524.66,461.011 1525.5,460C 1530.98,459.477 1536.31,458.477 1541.5,457C 1717.17,456.333 1892.83,456.333 2068.5,457C 2072.02,458.529 2075.68,459.529 2079.5,460C 2080.34,461.011 2080.67,462.178 2080.5,463.5C 2084.21,464.028 2087.88,464.862 2091.5,466C 2092.34,467.011 2092.67,468.178 2092.5,469.5C 2095.49,470.258 2098.49,471.091 2101.5,472C 2101.83,473 2102.17,474 2102.5,475C 2105,476.167 2107.5,477.333 2110,478.5C 2110.48,479.448 2110.65,480.448 2110.5,481.5C 2113.22,482.352 2115.89,483.519 2118.5,485C 2118.17,485.333 2117.83,485.667 2117.5,486C 2123.54,492.009 2129.88,498.342 2136.5,505C 2135.72,506.073 2135.89,507.24 2137,508.5C 2137.33,508.167 2137.67,507.833 2138,507.5C 2141.7,515.045 2145.2,522.712 2148.5,530.5C 2148.29,531.086 2147.96,531.586 2147.5,532C 2149.13,535.603 2149.96,539.437 2150,543.5C 2150.8,559.526 2150.47,575.526 2149,591.5C 2147.71,592.854 2147.54,594.188 2148.5,595.5C 2145.55,601.601 2143.38,608.601 2142,616.5C 2141.02,618.32 2139.52,619.487 2137.5,620C 2137.96,620.414 2138.29,620.914 2138.5,621.5C 2137.11,621.109 2136.11,621.942 2135.5,624C 2114.71,656.846 2093.71,689.346 2072.5,721.5C 2064.77,732.9 2057.44,744.567 2050.5,756.5C 2049.68,757.386 2048.68,757.719 2047.5,757.5C 2047.42,760.407 2046.59,763.073 2045,765.5C 2041.97,767.713 2039.97,770.713 2039,774.5C 2035.89,777.155 2033.89,780.488 2033,784.5C 2032.33,785.833 2031.67,785.833 2031,784.5C 2030.21,785.745 2029.71,787.078 2029.5,788.5C 2027.78,789.574 2026.78,791.241 2026.5,793.5C 2025.68,794.386 2024.68,794.719 2023.5,794.5C 2022.8,797.567 2021.8,800.567 2020.5,803.5C 2019.62,804.251 2018.62,804.751 2017.5,805C 2018.83,806.84 2018.67,807.34 2017,806.5C 2013.59,812.978 2009.93,819.311 2006,825.5C 2005.67,825.167 2005.33,824.833 2005,824.5C 1999.45,834.552 1993.62,843.886 1987.5,852.5C 1985.31,855.281 1983.64,858.281 1982.5,861.5C 1974.56,872.817 1966.89,884.484 1959.5,896.5C 1958.62,897.251 1957.62,897.751 1956.5,898C 1956.83,898.333 1957.17,898.667 1957.5,899C 1955.6,902.355 1953.26,905.355 1950.5,908C 1950.96,908.414 1951.29,908.914 1951.5,909.5C 1950.22,911.6 1948.55,913.266 1946.5,914.5C 1945.6,917.437 1944.26,920.104 1942.5,922.5C 1940.19,925.111 1938.35,928.111 1937,931.5C 1936,932.167 1935,932.833 1934,933.5C 1933.46,936.361 1932.46,939.028 1931,941.5C 1929.99,942.337 1928.82,942.67 1927.5,942.5C 1925.36,948.487 1922.52,954.153 1919,959.5C 1913.22,966.44 1908.05,973.773 1903.5,981.5C 1901.83,984.838 1900.16,988.171 1898.5,991.5C 1897.5,991.5 1896.5,991.5 1895.5,991.5C 1895.08,995.089 1893.91,998.423 1892,1001.5C 1891.67,1000.83 1891.33,1000.17 1891,999.5C 1890.87,1002.37 1889.7,1004.7 1887.5,1006.5C 1888.49,1008.12 1887.82,1009.12 1885.5,1009.5C 1882.53,1014.62 1879.19,1019.46 1875.5,1024C 1876.69,1026.66 1875.69,1027.82 1872.5,1027.5C 1870.35,1033.49 1867.51,1039.16 1864,1044.5C 1862.99,1045.34 1861.82,1045.67 1860.5,1045.5C 1859.49,1048.05 1858.66,1050.72 1858,1053.5C 1856.99,1054.34 1855.82,1054.67 1854.5,1054.5C 1853.97,1057.23 1853.14,1059.9 1852,1062.5C 1848.76,1065.98 1845.76,1069.65 1843,1073.5C 1841.73,1075.71 1840.73,1078.05 1840,1080.5C 1834.28,1087.59 1829.28,1095.26 1825,1103.5C 1793.48,1144.85 1757.31,1181.18 1716.5,1212.5C 1713.76,1214.52 1711.09,1216.52 1708.5,1218.5C 1705.8,1220.51 1703.13,1222.51 1700.5,1224.5C 1699.13,1224.34 1697.79,1224.51 1696.5,1225C 1696.83,1225.33 1697.17,1225.67 1697.5,1226C 1691.29,1230.05 1684.96,1233.88 1678.5,1237.5C 1678.17,1238.17 1677.83,1238.83 1677.5,1239.5C 1671.18,1243.4 1664.51,1246.74 1657.5,1249.5C 1657.02,1250.48 1656.36,1251.31 1655.5,1252C 1648.65,1255.01 1641.65,1257.68 1634.5,1260C 1633.83,1261 1633.17,1262 1632.5,1263C 1628.34,1263.53 1624.34,1264.53 1620.5,1266C 1619.83,1267 1619.17,1268 1618.5,1269C 1613.87,1270.16 1609.21,1270.99 1604.5,1271.5C 1604.64,1273.12 1603.97,1274.29 1602.5,1275C 1597.2,1276.16 1591.87,1276.99 1586.5,1277.5C 1586.5,1278.5 1586.5,1279.5 1586.5,1280.5C 1578.87,1281.84 1571.21,1283.01 1563.5,1284C 1562.62,1285.58 1561.29,1286.58 1559.5,1287C 1550.29,1288.48 1540.96,1289.48 1531.5,1290C 1500.83,1290.67 1470.17,1290.67 1439.5,1290C 1429.62,1288.52 1419.62,1287.52 1409.5,1287C 1408.03,1286.29 1407.36,1285.12 1407.5,1283.5C 1399.63,1283.71 1391.96,1282.87 1384.5,1281C 1383.5,1280 1382.5,1279 1381.5,1278C 1375.64,1276.52 1369.64,1275.52 1363.5,1275C 1362.83,1274 1362.17,1273 1361.5,1272C 1356.5,1271 1351.5,1270 1346.5,1269C 1345.03,1268.29 1344.36,1267.12 1344.5,1265.5C 1340.13,1264.98 1335.79,1264.14 1331.5,1263C 1330.17,1262.33 1329.17,1261.33 1328.5,1260C 1320.5,1258.16 1312.84,1255.5 1305.5,1252C 1301.84,1248.7 1297.51,1246.53 1292.5,1245.5C 1292.17,1244.83 1291.83,1244.17 1291.5,1243.5C 1283.15,1238.83 1274.81,1234.49 1266.5,1230.5C 1262.91,1226.78 1258.58,1223.95 1253.5,1222C 1252.93,1220.79 1252.26,1219.63 1251.5,1218.5C 1249.38,1219.87 1248.38,1219.2 1248.5,1216.5C 1246.4,1216.2 1244.4,1216.53 1242.5,1217.5C 1243.51,1218.4 1243.51,1219.06 1242.5,1219.5C 1239.45,1218.02 1237.12,1218.85 1235.5,1222C 1233.83,1222.33 1232.17,1222.67 1230.5,1223C 1231.86,1225.75 1231.19,1226.25 1228.5,1224.5C 1226.85,1225.28 1225.52,1226.44 1224.5,1228C 1222.83,1228.33 1221.17,1228.67 1219.5,1229C 1220.06,1229.38 1220.39,1229.88 1220.5,1230.5C 1216.97,1232.16 1213.3,1233.66 1209.5,1235C 1209.83,1235.33 1210.17,1235.67 1210.5,1236C 1201.17,1240 1192.17,1244.5 1183.5,1249.5C 1183.02,1250.48 1182.36,1251.31 1181.5,1252C 1175.88,1255.41 1169.22,1258.08 1161.5,1260C 1160.17,1260.67 1159.17,1261.67 1158.5,1263C 1154.83,1264 1151.17,1265 1147.5,1266C 1146.5,1267 1145.5,1268 1144.5,1269C 1139.99,1270.48 1135.32,1271.48 1130.5,1272C 1129.83,1273 1129.17,1274 1128.5,1275C 1122.22,1276.29 1115.88,1277.12 1109.5,1277.5C 1109.5,1278.5 1109.5,1279.5 1109.5,1280.5C 1099.19,1281.91 1088.86,1283.25 1078.5,1284.5C 1077.91,1285.8 1076.91,1286.63 1075.5,1287C 1068,1287.03 1060.67,1287.7 1053.5,1289C 1011.51,1290.52 969.512,1290.85 927.5,1290C 919.5,1289 911.5,1288 903.5,1287C 902.167,1286.33 901.167,1285.33 900.5,1284C 894.36,1283.48 888.36,1282.48 882.5,1281C 881.167,1280.33 880.167,1279.33 879.5,1278C 874.533,1276.84 869.533,1275.84 864.5,1275C 863.663,1273.99 863.33,1272.82 863.5,1271.5C 859.127,1270.98 854.794,1270.14 850.5,1269C 849.833,1268.67 849.167,1268.33 848.5,1268C 849.833,1267.33 849.833,1266.67 848.5,1266C 844.833,1265 841.167,1264 837.5,1263C 836.833,1262 836.167,1261 835.5,1260C 828.251,1257.83 821.918,1255.16 816.5,1252C 809.457,1246.97 802.124,1242.31 794.5,1238C 794.833,1237.67 795.167,1237.33 795.5,1237C 794.207,1236.51 792.873,1236.34 791.5,1236.5C 783.607,1230.53 775.607,1224.53 767.5,1218.5C 765.256,1216.76 763.09,1214.76 761,1212.5C 760.667,1212.83 760.333,1213.17 760,1213.5C 759.517,1212.55 759.351,1211.55 759.5,1210.5C 754.993,1207.93 750.66,1204.93 746.5,1201.5C 735.711,1190.86 725.044,1180.7 714.5,1171C 714.833,1170.67 715.167,1170.33 715.5,1170C 713.167,1168.33 710.833,1166.67 708.5,1165C 708.833,1164.67 709.167,1164.33 709.5,1164C 705.343,1159.67 701.343,1155.17 697.5,1150.5C 681.712,1126.25 665.878,1102.58 650,1079.5C 646.568,1074.07 643.568,1068.4 641,1062.5C 639.636,1063.26 638.469,1062.76 637.5,1061C 637.833,1060.67 638.167,1060.33 638.5,1060C 636.3,1056.86 633.967,1053.86 631.5,1051C 631.833,1050.67 632.167,1050.33 632.5,1050C 630.772,1048.03 628.939,1046.19 627,1044.5C 625.686,1039.92 623.186,1035.58 619.5,1031.5C 618.571,1030.31 618.238,1028.98 618.5,1027.5C 617.5,1027.5 616.5,1027.5 615.5,1027.5C 614.319,1023.8 612.652,1020.47 610.5,1017.5C 608.295,1014.27 605.962,1011.1 603.5,1008C 603.957,1007.59 604.291,1007.09 604.5,1006.5C 603.24,1005.62 602.074,1004.62 601,1003.5C 596.715,995.624 591.882,988.29 586.5,981.5C 583.934,976.568 580.767,971.901 577,967.5C 576.383,966.551 576.549,965.718 577.5,965C 575.558,962.966 573.725,960.8 572,958.5C 554.84,931.227 536.84,903.894 518,876.5C 508.992,860.892 499.492,846.058 489.5,832C 489.833,831.667 490.167,831.333 490.5,831C 487.529,829.914 485.863,827.748 485.5,824.5C 484.459,822.415 482.959,820.748 481,819.5C 477.452,814.139 474.619,808.473 472.5,802.5C 471.178,802.67 470.011,802.337 469,801.5C 465.601,796.086 462.601,790.419 460,784.5C 458.757,785.336 457.59,785.003 456.5,783.5C 456.709,782.914 457.043,782.414 457.5,782C 453.134,777.099 449.967,771.932 448,766.5C 447.667,766.833 447.333,767.167 447,767.5C 446.5,766.333 445.667,765.5 444.5,765C 445.167,764.667 445.833,764.333 446.5,764C 443.178,759.705 439.845,755.372 436.5,751C 436.833,750.667 437.167,750.333 437.5,750C 436.552,749.517 435.552,749.351 434.5,749.5C 433.043,746.348 432.043,743.015 431.5,739.5C 430.448,739.649 429.448,739.483 428.5,739C 428.833,738.667 429.167,738.333 429.5,738C 426.808,735.443 424.475,732.609 422.5,729.5C 422.709,728.914 423.043,728.414 423.5,728C 420.77,726.322 418.77,724.155 417.5,721.5C 414.397,714.846 410.397,708.846 405.5,703.5C 387.3,674.525 368.467,645.525 349,616.5C 347.587,614.348 346.754,612.014 346.5,609.5C 345.325,609.719 344.325,609.386 343.5,608.5C 341.124,604.549 339.957,600.216 340,595.5C 339.205,573.651 339.371,551.818 340.5,530C 341.647,526.571 342.48,523.071 343,519.5C 349.726,506.077 358.226,494.41 368.5,484.5C 370.662,482.98 372.995,481.98 375.5,481.5C 375.281,480.325 375.614,479.325 376.5,478.5C 379.054,477.075 381.72,475.909 384.5,475C 385.833,474.333 385.833,473.667 384.5,473C 388.398,471.405 392.398,470.239 396.5,469.5C 396.33,468.178 396.663,467.011 397.5,466C 401.898,465.107 406.232,463.941 410.5,462.5C 409.098,461.158 409.431,460.324 411.5,460C 415.273,459.64 418.939,458.807 422.5,457.5C 438.481,456.378 454.481,456.212 470.5,457C 474.5,458 478.5,459 482.5,460C 485.553,462.964 489.22,464.964 493.5,466C 495.811,468.901 498.811,470.901 502.5,472C 503.337,473.011 503.67,474.178 503.5,475.5C 504.552,475.351 505.552,475.517 506.5,476C 522.652,490.299 536.986,505.799 549.5,522.5C 549.291,523.086 548.957,523.586 548.5,524C 550.259,525.008 551.426,526.508 552,528.5C 552.333,528.167 552.667,527.833 553,527.5C 553.333,528.5 553.667,529.5 554,530.5C 555.666,529.66 555.833,530.16 554.5,532C 555.066,532.995 555.733,533.828 556.5,534.5 Z M 1650.5,1023.5 C 1649.21,1025.62 1647.38,1027.29 1645,1028.5C 1644.52,1029.45 1644.35,1030.45 1644.5,1031.5C 1643.45,1031.35 1642.45,1031.52 1641.5,1032C 1632.94,1040.49 1623.27,1047.49 1612.5,1053C 1612.83,1053.33 1613.17,1053.67 1613.5,1054C 1605.18,1058.83 1596.51,1063.16 1587.5,1067C 1587.83,1067.33 1588.17,1067.67 1588.5,1068C 1586.1,1068.19 1583.77,1068.69 1581.5,1069.5C 1579.9,1071.88 1577.57,1073.05 1574.5,1073C 1574.83,1073.33 1575.17,1073.67 1575.5,1074C 1571.63,1073.85 1568.29,1075.02 1565.5,1077.5C 1560.24,1079.11 1554.9,1080.45 1549.5,1081.5C 1545.29,1084.2 1540.62,1085.2 1535.5,1084.5C 1523.41,1086.08 1511.08,1087.74 1498.5,1089.5C 1485.95,1087.44 1473.29,1086.1 1460.5,1085.5C 1461.03,1084.81 1461.69,1084.31 1462.5,1084C 1462,1083.83 1461.5,1083.67 1461,1083.5C 1455.28,1085.45 1450.11,1084.62 1445.5,1081C 1442.17,1080.67 1438.83,1080.33 1435.5,1080C 1436.06,1079.62 1436.39,1079.12 1436.5,1078.5C 1432.64,1079.04 1429.31,1078.04 1426.5,1075.5C 1421.74,1074.48 1417.08,1073.14 1412.5,1071.5C 1412.17,1070.83 1411.83,1070.17 1411.5,1069.5C 1409.23,1068.69 1406.9,1068.19 1404.5,1068C 1404.83,1067.67 1405.17,1067.33 1405.5,1067C 1403.42,1066.81 1401.42,1066.31 1399.5,1065.5C 1395.88,1062.85 1391.88,1060.85 1387.5,1059.5C 1387.17,1058.83 1386.83,1058.17 1386.5,1057.5C 1383.26,1056.04 1379.93,1054.87 1376.5,1054C 1376.83,1053.67 1377.17,1053.33 1377.5,1053C 1374.25,1051.14 1370.92,1049.47 1367.5,1048C 1367.83,1047.67 1368.17,1047.33 1368.5,1047C 1366.61,1046.03 1364.61,1045.36 1362.5,1045C 1364.71,1041.97 1367.05,1039.13 1369.5,1036.5C 1370.3,1034.92 1370.8,1033.26 1371,1031.5C 1371.33,1031.83 1371.67,1032.17 1372,1032.5C 1372.93,1030.23 1374.27,1028.23 1376,1026.5C 1376.62,1025.55 1376.45,1024.72 1375.5,1024C 1377.26,1022.99 1378.43,1021.49 1379,1019.5C 1379.33,1019.83 1379.67,1020.17 1380,1020.5C 1380.33,1019.5 1380.67,1018.5 1381,1017.5C 1382.67,1018.34 1382.83,1017.84 1381.5,1016C 1382.61,1013.22 1384.45,1011.05 1387,1009.5C 1387.89,1006.61 1389.22,1003.94 1391,1001.5C 1391.33,1001.83 1391.67,1002.17 1392,1002.5C 1393.06,999.382 1394.39,996.382 1396,993.5C 1404.15,981.213 1412.32,968.88 1420.5,956.5C 1423.39,953.448 1426.06,950.282 1428.5,947C 1428.04,946.586 1427.71,946.086 1427.5,945.5C 1433.78,938.034 1439.11,930.701 1443.5,923.5C 1443.29,922.914 1442.96,922.414 1442.5,922C 1445.87,919.635 1448.04,916.468 1449,912.5C 1455.2,904.298 1461.37,895.298 1467.5,885.5C 1469.53,886.629 1469.86,886.129 1468.5,884C 1471.46,880.583 1473.79,876.75 1475.5,872.5C 1476.32,871.614 1477.32,871.281 1478.5,871.5C 1481.04,865.76 1483.88,860.094 1487,854.5C 1489.94,852.179 1492.11,849.179 1493.5,845.5C 1494.5,845 1495.5,844.5 1496.5,844C 1496.17,843.667 1495.83,843.333 1495.5,843C 1539.19,776.312 1583.19,709.146 1627.5,641.5C 1628.35,640.478 1629.35,639.645 1630.5,639C 1629.36,638.259 1629.36,637.425 1630.5,636.5C 1631.69,635.147 1633.02,633.98 1634.5,633C 1634.17,632.667 1633.83,632.333 1633.5,632C 1644.4,616.218 1655.06,600.218 1665.5,584C 1759.17,583.333 1852.83,583.333 1946.5,584C 1945.02,584.98 1943.69,586.147 1942.5,587.5C 1934.75,598.911 1927.42,610.578 1920.5,622.5C 1918.1,623.008 1917.43,624.175 1918.5,626C 1909.38,638.083 1900.55,651.583 1892,666.5C 1891.33,667.833 1890.67,667.833 1890,666.5C 1888.27,672.289 1885.27,677.289 1881,681.5C 1880.51,682.793 1880.34,684.127 1880.5,685.5C 1878.06,685.119 1877.39,685.786 1878.5,687.5C 1875.47,690.185 1873.3,693.518 1872,697.5C 1871,698.167 1870,698.833 1869,699.5C 1867.82,703.019 1865.82,706.019 1863,708.5C 1859.6,713.914 1856.6,719.581 1854,725.5C 1852.44,724.795 1851.28,725.461 1850.5,727.5C 1850.71,728.086 1851.04,728.586 1851.5,729C 1849.32,730.773 1847.49,732.939 1846,735.5C 1845.67,735.167 1845.33,734.833 1845,734.5C 1844.09,737.513 1843.26,740.513 1842.5,743.5C 1839.54,743.117 1838.54,744.117 1839.5,746.5C 1835.65,750.562 1832.82,755.228 1831,760.5C 1829.75,761.211 1828.58,762.044 1827.5,763C 1827.83,763.333 1828.17,763.667 1828.5,764C 1822.35,771.572 1817.02,779.739 1812.5,788.5C 1810.47,787.371 1810.14,787.871 1811.5,790C 1810.35,790.645 1809.35,791.478 1808.5,792.5C 1795.62,813.699 1782.29,834.199 1768.5,854C 1768.83,854.333 1769.17,854.667 1769.5,855C 1765.93,856.734 1764.26,859.568 1764.5,863.5C 1763.32,863.281 1762.32,863.614 1761.5,864.5C 1756.09,873.062 1750.93,881.729 1746,890.5C 1742.68,893.806 1739.85,897.472 1737.5,901.5C 1736.06,904.055 1734.89,906.721 1734,909.5C 1733.67,909.167 1733.33,908.833 1733,908.5C 1716.01,935.541 1697.84,963.374 1678.5,992C 1678.83,992.333 1679.17,992.667 1679.5,993C 1677.08,993.661 1675.42,995.161 1674.5,997.5C 1673.57,998.689 1673.24,1000.02 1673.5,1001.5C 1672.32,1001.28 1671.32,1001.61 1670.5,1002.5C 1664.63,1010.4 1657.96,1017.4 1650.5,1023.5 Z"/></g>
<g><path style="opacity:0.004" fill="#fefffe" d="M 556.5,533.5 C 557.833,534.167 557.833,534.167 556.5,533.5 Z"/></g>
<g><path style="opacity:0.004" fill="#fefffe" d="M 1413.5,589.5 C 1412.83,588.167 1412.83,588.167 1413.5,589.5 Z"/></g>
<g><path style="opacity:0.004" fill="#fefffe" d="M 647.5,673.5 C 648.833,674.167 648.833,674.167 647.5,673.5 Z"/></g>
<g><path style="opacity:0.004" fill="#fefffe" d="M 870.5,674.5 C 869.833,675.167 869.833,675.167 870.5,674.5 Z"/></g>
<g><path style="opacity:0.004" fill="#fefffe" d="M 405.5,703.5 C 405.631,704.239 405.464,704.906 405,705.5C 404.308,704.563 404.475,703.897 405.5,703.5 Z"/></g>
<g><path style="opacity:0.004" fill="#fefffe" d="M 417.5,721.5 C 416.833,722.167 416.833,722.167 417.5,721.5 Z"/></g>
<g><path style="opacity:0.004" fill="#fefffe" d="M 1180.5,750.5 C 1181.83,751.167 1181.83,751.167 1180.5,750.5 Z"/></g>
<g><path style="opacity:0.004" fill="#fefffe" d="M 2029.5,788.5 C 2030.83,789.167 2030.83,789.167 2029.5,788.5 Z"/></g>
<g><path style="opacity:0.004" fill="#fefffe" d="M 951.5,800.5 C 950.833,801.167 950.833,801.167 951.5,800.5 Z"/></g>
<g><path style="opacity:0.004" fill="#fefffe" d="M 1982.5,861.5 C 1983.83,862.167 1983.83,862.167 1982.5,861.5 Z"/></g>
<g><path style="opacity:0.004" fill="#fefffe" d="M 511.5,867.5 C 512.833,868.167 512.833,868.167 511.5,867.5 Z"/></g>
<g><path style="opacity:0.004" fill="#fefffe" d="M 1942.5,922.5 C 1943.83,923.167 1943.83,923.167 1942.5,922.5 Z"/></g>
<g><path style="opacity:0.004" fill="#fefffe" d="M 586.5,981.5 C 586.631,982.239 586.464,982.906 586,983.5C 585.308,982.563 585.475,981.897 586.5,981.5 Z"/></g>
<g><path style="opacity:0.004" fill="#fefffe" d="M 1903.5,981.5 C 1904.83,982.167 1904.83,982.167 1903.5,981.5 Z"/></g>
<g><path style="opacity:0.004" fill="#fefffe" d="M 610.5,1017.5 C 609.833,1018.17 609.833,1018.17 610.5,1017.5 Z"/></g>
<g><path style="opacity:0.004" fill="#fefffe" d="M 992.5,1072.5 C 994.288,1071.38 996.288,1071.21 998.5,1072C 996.527,1072.5 994.527,1072.66 992.5,1072.5 Z"/></g>
<g><path style="opacity:0.004" fill="#fefffe" d="M 1716.5,1212.5 C 1717.83,1213.17 1717.83,1213.17 1716.5,1212.5 Z"/></g>
<g><path style="opacity:0.004" fill="#fefffe" d="M 767.5,1218.5 C 766.833,1219.17 766.833,1219.17 767.5,1218.5 Z"/></g>
<g><path style="opacity:0.004" fill="#fefffe" d="M 1708.5,1218.5 C 1709.83,1219.17 1709.83,1219.17 1708.5,1218.5 Z"/></g>
<g><path style="opacity:0.004" fill="#fefffe" d="M 1700.5,1224.5 C 1701.83,1225.17 1701.83,1225.17 1700.5,1224.5 Z"/></g>
<g><path style="opacity:0.004" fill="#fefffe" d="M 1220.5,1230.5 C 1221.83,1231.17 1221.83,1231.17 1220.5,1230.5 Z"/></g>
<g><path style="opacity:0.004" fill="#fefffe" d="M 1266.5,1230.5 C 1265.83,1231.17 1265.83,1231.17 1266.5,1230.5 Z"/></g>
<g><path style="opacity:0.004" fill="#fefffe" d="M 791.5,1236.5 C 790.833,1237.17 790.833,1237.17 791.5,1236.5 Z"/></g>
</svg>
